%TF.GenerationSoftware,KiCad,Pcbnew,6.0.7-f9a2dced07~116~ubuntu22.04.1*%
%TF.CreationDate,2022-09-27T00:14:19+08:00*%
%TF.ProjectId,esp32_core_m2,65737033-325f-4636-9f72-655f6d322e6b,rev?*%
%TF.SameCoordinates,Original*%
%TF.FileFunction,Legend,Top*%
%TF.FilePolarity,Positive*%
%FSLAX46Y46*%
G04 Gerber Fmt 4.6, Leading zero omitted, Abs format (unit mm)*
G04 Created by KiCad (PCBNEW 6.0.7-f9a2dced07~116~ubuntu22.04.1) date 2022-09-27 00:14:19*
%MOMM*%
%LPD*%
G01*
G04 APERTURE LIST*
%ADD10C,0.150000*%
%ADD11C,0.120000*%
%ADD12C,0.100000*%
G04 APERTURE END LIST*
D10*
%TO.C,D2*%
X102309704Y-65519580D02*
X102309704Y-64519580D01*
X102547800Y-64519580D01*
X102690657Y-64567200D01*
X102785895Y-64662438D01*
X102833514Y-64757676D01*
X102881133Y-64948152D01*
X102881133Y-65091009D01*
X102833514Y-65281485D01*
X102785895Y-65376723D01*
X102690657Y-65471961D01*
X102547800Y-65519580D01*
X102309704Y-65519580D01*
X103262085Y-64614819D02*
X103309704Y-64567200D01*
X103404942Y-64519580D01*
X103643038Y-64519580D01*
X103738276Y-64567200D01*
X103785895Y-64614819D01*
X103833514Y-64710057D01*
X103833514Y-64805295D01*
X103785895Y-64948152D01*
X103214466Y-65519580D01*
X103833514Y-65519580D01*
%TO.C,D1*%
X102335104Y-67272180D02*
X102335104Y-66272180D01*
X102573200Y-66272180D01*
X102716057Y-66319800D01*
X102811295Y-66415038D01*
X102858914Y-66510276D01*
X102906533Y-66700752D01*
X102906533Y-66843609D01*
X102858914Y-67034085D01*
X102811295Y-67129323D01*
X102716057Y-67224561D01*
X102573200Y-67272180D01*
X102335104Y-67272180D01*
X103858914Y-67272180D02*
X103287485Y-67272180D01*
X103573200Y-67272180D02*
X103573200Y-66272180D01*
X103477961Y-66415038D01*
X103382723Y-66510276D01*
X103287485Y-66557895D01*
%TO.C,C12*%
X98098150Y-68317386D02*
X98165494Y-68317386D01*
X98300181Y-68384730D01*
X98367524Y-68452073D01*
X98434868Y-68586760D01*
X98434868Y-68721447D01*
X98401196Y-68822462D01*
X98300181Y-68990821D01*
X98199166Y-69091836D01*
X98030807Y-69192852D01*
X97929792Y-69226523D01*
X97795105Y-69226523D01*
X97660418Y-69159180D01*
X97593074Y-69091836D01*
X97525731Y-68957149D01*
X97525731Y-68889806D01*
X97492059Y-67576607D02*
X97896120Y-67980668D01*
X97694089Y-67778638D02*
X96986982Y-68485745D01*
X97155341Y-68452073D01*
X97290028Y-68452073D01*
X97391044Y-68485745D01*
X96582921Y-67946997D02*
X96515578Y-67946997D01*
X96414563Y-67913325D01*
X96246204Y-67744966D01*
X96212532Y-67643951D01*
X96212532Y-67576607D01*
X96246204Y-67475592D01*
X96313547Y-67408249D01*
X96448234Y-67340905D01*
X97256356Y-67340905D01*
X96818624Y-66903172D01*
%TO.C,R5*%
X100165333Y-67532180D02*
X99832000Y-67055990D01*
X99593904Y-67532180D02*
X99593904Y-66532180D01*
X99974857Y-66532180D01*
X100070095Y-66579800D01*
X100117714Y-66627419D01*
X100165333Y-66722657D01*
X100165333Y-66865514D01*
X100117714Y-66960752D01*
X100070095Y-67008371D01*
X99974857Y-67055990D01*
X99593904Y-67055990D01*
X101070095Y-66532180D02*
X100593904Y-66532180D01*
X100546285Y-67008371D01*
X100593904Y-66960752D01*
X100689142Y-66913133D01*
X100927238Y-66913133D01*
X101022476Y-66960752D01*
X101070095Y-67008371D01*
X101117714Y-67103609D01*
X101117714Y-67341704D01*
X101070095Y-67436942D01*
X101022476Y-67484561D01*
X100927238Y-67532180D01*
X100689142Y-67532180D01*
X100593904Y-67484561D01*
X100546285Y-67436942D01*
%TO.C,C5*%
X98584745Y-74320156D02*
X98652088Y-74320156D01*
X98786775Y-74387500D01*
X98854119Y-74454844D01*
X98921462Y-74589531D01*
X98921462Y-74724218D01*
X98887791Y-74825233D01*
X98786775Y-74993592D01*
X98685760Y-75094607D01*
X98517401Y-75195622D01*
X98416386Y-75229294D01*
X98281699Y-75229294D01*
X98147012Y-75161950D01*
X98079668Y-75094607D01*
X98012325Y-74959920D01*
X98012325Y-74892576D01*
X97305218Y-74320156D02*
X97641936Y-74656874D01*
X98012325Y-74353828D01*
X97944981Y-74353828D01*
X97843966Y-74320156D01*
X97675607Y-74151798D01*
X97641936Y-74050782D01*
X97641936Y-73983439D01*
X97675607Y-73882424D01*
X97843966Y-73714065D01*
X97944981Y-73680393D01*
X98012325Y-73680393D01*
X98113340Y-73714065D01*
X98281699Y-73882424D01*
X98315371Y-73983439D01*
X98315371Y-74050782D01*
%TO.C,C4*%
X97930352Y-62117266D02*
X97977971Y-62164885D01*
X98025590Y-62307742D01*
X98025590Y-62402980D01*
X97977971Y-62545838D01*
X97882733Y-62641076D01*
X97787495Y-62688695D01*
X97597019Y-62736314D01*
X97454162Y-62736314D01*
X97263686Y-62688695D01*
X97168448Y-62641076D01*
X97073210Y-62545838D01*
X97025590Y-62402980D01*
X97025590Y-62307742D01*
X97073210Y-62164885D01*
X97120829Y-62117266D01*
X97358924Y-61260123D02*
X98025590Y-61260123D01*
X96977971Y-61498219D02*
X97692257Y-61736314D01*
X97692257Y-61117266D01*
%TO.C,C13*%
X90280213Y-79759350D02*
X90280213Y-79826694D01*
X90212869Y-79961381D01*
X90145526Y-80028724D01*
X90010839Y-80096068D01*
X89876152Y-80096068D01*
X89775137Y-80062396D01*
X89606778Y-79961381D01*
X89505763Y-79860366D01*
X89404747Y-79692007D01*
X89371076Y-79590992D01*
X89371076Y-79456305D01*
X89438419Y-79321618D01*
X89505763Y-79254274D01*
X89640450Y-79186931D01*
X89707793Y-79186931D01*
X91020992Y-79153259D02*
X90616931Y-79557320D01*
X90818961Y-79355289D02*
X90111854Y-78648182D01*
X90145526Y-78816541D01*
X90145526Y-78951228D01*
X90111854Y-79052244D01*
X90549587Y-78210450D02*
X90987320Y-77772717D01*
X91020992Y-78277793D01*
X91122007Y-78176778D01*
X91223022Y-78143106D01*
X91290366Y-78143106D01*
X91391381Y-78176778D01*
X91559740Y-78345137D01*
X91593411Y-78446152D01*
X91593411Y-78513495D01*
X91559740Y-78614511D01*
X91357709Y-78816541D01*
X91256694Y-78850213D01*
X91189350Y-78850213D01*
%TO.C,C11*%
X90833336Y-76636451D02*
X90833336Y-76703795D01*
X90765992Y-76838482D01*
X90698649Y-76905825D01*
X90563962Y-76973169D01*
X90429275Y-76973169D01*
X90328260Y-76939497D01*
X90159901Y-76838482D01*
X90058886Y-76737467D01*
X89957870Y-76569108D01*
X89924199Y-76468093D01*
X89924199Y-76333406D01*
X89991542Y-76198719D01*
X90058886Y-76131375D01*
X90193573Y-76064032D01*
X90260916Y-76064032D01*
X91574115Y-76030360D02*
X91170054Y-76434421D01*
X91372084Y-76232390D02*
X90664977Y-75525283D01*
X90698649Y-75693642D01*
X90698649Y-75828329D01*
X90664977Y-75929345D01*
X92247550Y-75356925D02*
X91843489Y-75760986D01*
X92045519Y-75558955D02*
X91338412Y-74851848D01*
X91372084Y-75020207D01*
X91372084Y-75154894D01*
X91338412Y-75255909D01*
%TO.C,C15*%
X89157222Y-66059682D02*
X89157222Y-66127026D01*
X89089878Y-66261713D01*
X89022535Y-66329056D01*
X88887848Y-66396400D01*
X88753161Y-66396400D01*
X88652146Y-66362728D01*
X88483787Y-66261713D01*
X88382772Y-66160698D01*
X88281756Y-65992339D01*
X88248085Y-65891324D01*
X88248085Y-65756637D01*
X88315428Y-65621950D01*
X88382772Y-65554606D01*
X88517459Y-65487263D01*
X88584802Y-65487263D01*
X89898001Y-65453591D02*
X89493940Y-65857652D01*
X89695970Y-65655621D02*
X88988863Y-64948514D01*
X89022535Y-65116873D01*
X89022535Y-65251560D01*
X88988863Y-65352576D01*
X89830657Y-64106721D02*
X89493940Y-64443438D01*
X89796985Y-64813827D01*
X89796985Y-64746484D01*
X89830657Y-64645469D01*
X89999016Y-64477110D01*
X90100031Y-64443438D01*
X90167375Y-64443438D01*
X90268390Y-64477110D01*
X90436749Y-64645469D01*
X90470420Y-64746484D01*
X90470420Y-64813827D01*
X90436749Y-64914843D01*
X90268390Y-65083201D01*
X90167375Y-65116873D01*
X90100031Y-65116873D01*
%TO.C,C6*%
X96195067Y-78523769D02*
X96195067Y-78591112D01*
X96127723Y-78725799D01*
X96060380Y-78793143D01*
X95925692Y-78860486D01*
X95791005Y-78860486D01*
X95689990Y-78826815D01*
X95521631Y-78725799D01*
X95420616Y-78624784D01*
X95319601Y-78456425D01*
X95285929Y-78355410D01*
X95285929Y-78220723D01*
X95353273Y-78086036D01*
X95420616Y-78018692D01*
X95555303Y-77951349D01*
X95622647Y-77951349D01*
X96161395Y-77277914D02*
X96026708Y-77412601D01*
X95993036Y-77513616D01*
X95993036Y-77580960D01*
X96026708Y-77749318D01*
X96127723Y-77917677D01*
X96397097Y-78187051D01*
X96498112Y-78220723D01*
X96565456Y-78220723D01*
X96666471Y-78187051D01*
X96801158Y-78052364D01*
X96834830Y-77951349D01*
X96834830Y-77884005D01*
X96801158Y-77782990D01*
X96632799Y-77614631D01*
X96531784Y-77580960D01*
X96464441Y-77580960D01*
X96363425Y-77614631D01*
X96228738Y-77749318D01*
X96195067Y-77850334D01*
X96195067Y-77917677D01*
X96228738Y-78018692D01*
%TO.C,C18*%
X82085942Y-62552676D02*
X82133561Y-62600295D01*
X82181180Y-62743152D01*
X82181180Y-62838390D01*
X82133561Y-62981247D01*
X82038323Y-63076485D01*
X81943085Y-63124104D01*
X81752609Y-63171723D01*
X81609752Y-63171723D01*
X81419276Y-63124104D01*
X81324038Y-63076485D01*
X81228800Y-62981247D01*
X81181180Y-62838390D01*
X81181180Y-62743152D01*
X81228800Y-62600295D01*
X81276419Y-62552676D01*
X82181180Y-61600295D02*
X82181180Y-62171723D01*
X82181180Y-61886009D02*
X81181180Y-61886009D01*
X81324038Y-61981247D01*
X81419276Y-62076485D01*
X81466895Y-62171723D01*
X81609752Y-61028866D02*
X81562133Y-61124104D01*
X81514514Y-61171723D01*
X81419276Y-61219342D01*
X81371657Y-61219342D01*
X81276419Y-61171723D01*
X81228800Y-61124104D01*
X81181180Y-61028866D01*
X81181180Y-60838390D01*
X81228800Y-60743152D01*
X81276419Y-60695533D01*
X81371657Y-60647914D01*
X81419276Y-60647914D01*
X81514514Y-60695533D01*
X81562133Y-60743152D01*
X81609752Y-60838390D01*
X81609752Y-61028866D01*
X81657371Y-61124104D01*
X81704990Y-61171723D01*
X81800228Y-61219342D01*
X81990704Y-61219342D01*
X82085942Y-61171723D01*
X82133561Y-61124104D01*
X82181180Y-61028866D01*
X82181180Y-60838390D01*
X82133561Y-60743152D01*
X82085942Y-60695533D01*
X81990704Y-60647914D01*
X81800228Y-60647914D01*
X81704990Y-60695533D01*
X81657371Y-60743152D01*
X81609752Y-60838390D01*
%TO.C,R2*%
X100655247Y-70801854D02*
X100554232Y-71374274D01*
X101059308Y-71205915D02*
X100352202Y-71913022D01*
X100082827Y-71643648D01*
X100049156Y-71542633D01*
X100049156Y-71475289D01*
X100082827Y-71374274D01*
X100183843Y-71273259D01*
X100284858Y-71239587D01*
X100352202Y-71239587D01*
X100453217Y-71273259D01*
X100722591Y-71542633D01*
X99746110Y-71172243D02*
X99678766Y-71172243D01*
X99577751Y-71138572D01*
X99409392Y-70970213D01*
X99375721Y-70869197D01*
X99375721Y-70801854D01*
X99409392Y-70700839D01*
X99476736Y-70633495D01*
X99611423Y-70566152D01*
X100419545Y-70566152D01*
X99981812Y-70128419D01*
%TO.C,U2*%
X89779374Y-75001121D02*
X90351794Y-74428701D01*
X90385466Y-74327686D01*
X90385466Y-74260342D01*
X90351794Y-74159327D01*
X90217107Y-74024640D01*
X90116092Y-73990968D01*
X90048748Y-73990968D01*
X89947733Y-74024640D01*
X89375313Y-74597060D01*
X89139611Y-74226670D02*
X89072268Y-74226670D01*
X88971252Y-74192999D01*
X88802894Y-74024640D01*
X88769222Y-73923625D01*
X88769222Y-73856281D01*
X88802894Y-73755266D01*
X88870237Y-73687922D01*
X89004924Y-73620579D01*
X89813046Y-73620579D01*
X89375313Y-73182846D01*
%TO.C,R6*%
X100188733Y-65779580D02*
X99855400Y-65303390D01*
X99617304Y-65779580D02*
X99617304Y-64779580D01*
X99998257Y-64779580D01*
X100093495Y-64827200D01*
X100141114Y-64874819D01*
X100188733Y-64970057D01*
X100188733Y-65112914D01*
X100141114Y-65208152D01*
X100093495Y-65255771D01*
X99998257Y-65303390D01*
X99617304Y-65303390D01*
X101045876Y-64779580D02*
X100855400Y-64779580D01*
X100760161Y-64827200D01*
X100712542Y-64874819D01*
X100617304Y-65017676D01*
X100569685Y-65208152D01*
X100569685Y-65589104D01*
X100617304Y-65684342D01*
X100664923Y-65731961D01*
X100760161Y-65779580D01*
X100950638Y-65779580D01*
X101045876Y-65731961D01*
X101093495Y-65684342D01*
X101141114Y-65589104D01*
X101141114Y-65351009D01*
X101093495Y-65255771D01*
X101045876Y-65208152D01*
X100950638Y-65160533D01*
X100760161Y-65160533D01*
X100664923Y-65208152D01*
X100617304Y-65255771D01*
X100569685Y-65351009D01*
%TO.C,C3*%
X99180142Y-62117266D02*
X99227761Y-62164885D01*
X99275380Y-62307742D01*
X99275380Y-62402980D01*
X99227761Y-62545838D01*
X99132523Y-62641076D01*
X99037285Y-62688695D01*
X98846809Y-62736314D01*
X98703952Y-62736314D01*
X98513476Y-62688695D01*
X98418238Y-62641076D01*
X98323000Y-62545838D01*
X98275380Y-62402980D01*
X98275380Y-62307742D01*
X98323000Y-62164885D01*
X98370619Y-62117266D01*
X98275380Y-61783933D02*
X98275380Y-61164885D01*
X98656333Y-61498219D01*
X98656333Y-61355361D01*
X98703952Y-61260123D01*
X98751571Y-61212504D01*
X98846809Y-61164885D01*
X99084904Y-61164885D01*
X99180142Y-61212504D01*
X99227761Y-61260123D01*
X99275380Y-61355361D01*
X99275380Y-61641076D01*
X99227761Y-61736314D01*
X99180142Y-61783933D01*
%TO.C,R4*%
X80783133Y-72332780D02*
X80449800Y-71856590D01*
X80211704Y-72332780D02*
X80211704Y-71332780D01*
X80592657Y-71332780D01*
X80687895Y-71380400D01*
X80735514Y-71428019D01*
X80783133Y-71523257D01*
X80783133Y-71666114D01*
X80735514Y-71761352D01*
X80687895Y-71808971D01*
X80592657Y-71856590D01*
X80211704Y-71856590D01*
X81640276Y-71666114D02*
X81640276Y-72332780D01*
X81402180Y-71285161D02*
X81164085Y-71999447D01*
X81783133Y-71999447D01*
%TO.C,U3*%
X104647904Y-83478619D02*
X104647904Y-82669095D01*
X104600285Y-82573857D01*
X104552666Y-82526238D01*
X104457428Y-82478619D01*
X104266952Y-82478619D01*
X104171714Y-82526238D01*
X104124095Y-82573857D01*
X104076476Y-82669095D01*
X104076476Y-83478619D01*
X103695523Y-83478619D02*
X103076476Y-83478619D01*
X103409809Y-83097666D01*
X103266952Y-83097666D01*
X103171714Y-83050047D01*
X103124095Y-83002428D01*
X103076476Y-82907190D01*
X103076476Y-82669095D01*
X103124095Y-82573857D01*
X103171714Y-82526238D01*
X103266952Y-82478619D01*
X103552666Y-82478619D01*
X103647904Y-82526238D01*
X103695523Y-82573857D01*
%TO.C,C17*%
X96894725Y-72454662D02*
X96894725Y-72522006D01*
X96827381Y-72656693D01*
X96760038Y-72724036D01*
X96625351Y-72791380D01*
X96490664Y-72791380D01*
X96389649Y-72757708D01*
X96221290Y-72656693D01*
X96120275Y-72555678D01*
X96019259Y-72387319D01*
X95985588Y-72286304D01*
X95985588Y-72151617D01*
X96052931Y-72016930D01*
X96120275Y-71949586D01*
X96254962Y-71882243D01*
X96322305Y-71882243D01*
X97635504Y-71848571D02*
X97231443Y-72252632D01*
X97433473Y-72050601D02*
X96726366Y-71343494D01*
X96760038Y-71511853D01*
X96760038Y-71646540D01*
X96726366Y-71747556D01*
X97164099Y-70905762D02*
X97635504Y-70434357D01*
X98039565Y-71444510D01*
%TO.C,C2*%
X91534742Y-62168066D02*
X91582361Y-62215685D01*
X91629980Y-62358542D01*
X91629980Y-62453780D01*
X91582361Y-62596638D01*
X91487123Y-62691876D01*
X91391885Y-62739495D01*
X91201409Y-62787114D01*
X91058552Y-62787114D01*
X90868076Y-62739495D01*
X90772838Y-62691876D01*
X90677600Y-62596638D01*
X90629980Y-62453780D01*
X90629980Y-62358542D01*
X90677600Y-62215685D01*
X90725219Y-62168066D01*
X90725219Y-61787114D02*
X90677600Y-61739495D01*
X90629980Y-61644257D01*
X90629980Y-61406161D01*
X90677600Y-61310923D01*
X90725219Y-61263304D01*
X90820457Y-61215685D01*
X90915695Y-61215685D01*
X91058552Y-61263304D01*
X91629980Y-61834733D01*
X91629980Y-61215685D01*
%TO.C,C9*%
X97202633Y-74356068D02*
X97269976Y-74356068D01*
X97404663Y-74423412D01*
X97472007Y-74490756D01*
X97539350Y-74625443D01*
X97539350Y-74760130D01*
X97505679Y-74861145D01*
X97404663Y-75029504D01*
X97303648Y-75130519D01*
X97135289Y-75231534D01*
X97034274Y-75265206D01*
X96899587Y-75265206D01*
X96764900Y-75197862D01*
X96697556Y-75130519D01*
X96630213Y-74995832D01*
X96630213Y-74928488D01*
X96933259Y-73952007D02*
X96798572Y-73817320D01*
X96697556Y-73783649D01*
X96630213Y-73783649D01*
X96461854Y-73817320D01*
X96293495Y-73918336D01*
X96024121Y-74187710D01*
X95990450Y-74288725D01*
X95990450Y-74356068D01*
X96024121Y-74457084D01*
X96158808Y-74591771D01*
X96259824Y-74625443D01*
X96327167Y-74625443D01*
X96428182Y-74591771D01*
X96596541Y-74423412D01*
X96630213Y-74322397D01*
X96630213Y-74255053D01*
X96596541Y-74154038D01*
X96461854Y-74019351D01*
X96360839Y-73985679D01*
X96293495Y-73985679D01*
X96192480Y-74019351D01*
%TO.C,U5*%
X99627219Y-59104495D02*
X98817695Y-59104495D01*
X98722457Y-59152114D01*
X98674838Y-59199733D01*
X98627219Y-59294971D01*
X98627219Y-59485447D01*
X98674838Y-59580685D01*
X98722457Y-59628304D01*
X98817695Y-59675923D01*
X99627219Y-59675923D01*
X99627219Y-60628304D02*
X99627219Y-60152114D01*
X99151028Y-60104495D01*
X99198647Y-60152114D01*
X99246266Y-60247352D01*
X99246266Y-60485447D01*
X99198647Y-60580685D01*
X99151028Y-60628304D01*
X99055790Y-60675923D01*
X98817695Y-60675923D01*
X98722457Y-60628304D01*
X98674838Y-60580685D01*
X98627219Y-60485447D01*
X98627219Y-60247352D01*
X98674838Y-60152114D01*
X98722457Y-60104495D01*
%TO.C,C7*%
X97848145Y-75132956D02*
X97915488Y-75132956D01*
X98050175Y-75200300D01*
X98117519Y-75267644D01*
X98184862Y-75402331D01*
X98184862Y-75537018D01*
X98151191Y-75638033D01*
X98050175Y-75806392D01*
X97949160Y-75907407D01*
X97780801Y-76008422D01*
X97679786Y-76042094D01*
X97545099Y-76042094D01*
X97410412Y-75974750D01*
X97343068Y-75907407D01*
X97275725Y-75772720D01*
X97275725Y-75705376D01*
X96972679Y-75537018D02*
X96501275Y-75065613D01*
X97511427Y-74661552D01*
%TO.C,R3*%
X80757733Y-73475780D02*
X80424400Y-72999590D01*
X80186304Y-73475780D02*
X80186304Y-72475780D01*
X80567257Y-72475780D01*
X80662495Y-72523400D01*
X80710114Y-72571019D01*
X80757733Y-72666257D01*
X80757733Y-72809114D01*
X80710114Y-72904352D01*
X80662495Y-72951971D01*
X80567257Y-72999590D01*
X80186304Y-72999590D01*
X81091066Y-72475780D02*
X81710114Y-72475780D01*
X81376780Y-72856733D01*
X81519638Y-72856733D01*
X81614876Y-72904352D01*
X81662495Y-72951971D01*
X81710114Y-73047209D01*
X81710114Y-73285304D01*
X81662495Y-73380542D01*
X81614876Y-73428161D01*
X81519638Y-73475780D01*
X81233923Y-73475780D01*
X81138685Y-73428161D01*
X81091066Y-73380542D01*
%TO.C,L2*%
X96384417Y-75174284D02*
X96721135Y-75511002D01*
X96014028Y-76218108D01*
X95542623Y-75612017D02*
X95475280Y-75612017D01*
X95374265Y-75578345D01*
X95205906Y-75409986D01*
X95172234Y-75308971D01*
X95172234Y-75241627D01*
X95205906Y-75140612D01*
X95273249Y-75073269D01*
X95407936Y-75005925D01*
X96216059Y-75005925D01*
X95778326Y-74568192D01*
%TO.C,U4*%
X79940980Y-65811304D02*
X80750504Y-65811304D01*
X80845742Y-65763685D01*
X80893361Y-65716066D01*
X80940980Y-65620828D01*
X80940980Y-65430352D01*
X80893361Y-65335114D01*
X80845742Y-65287495D01*
X80750504Y-65239876D01*
X79940980Y-65239876D01*
X80274314Y-64335114D02*
X80940980Y-64335114D01*
X79893361Y-64573209D02*
X80607647Y-64811304D01*
X80607647Y-64192257D01*
%TO.C,U1*%
X93043633Y-59475384D02*
X93043633Y-60284908D01*
X93091252Y-60380146D01*
X93138871Y-60427765D01*
X93234109Y-60475384D01*
X93424585Y-60475384D01*
X93519823Y-60427765D01*
X93567442Y-60380146D01*
X93615061Y-60284908D01*
X93615061Y-59475384D01*
X94615061Y-60475384D02*
X94043633Y-60475384D01*
X94329347Y-60475384D02*
X94329347Y-59475384D01*
X94234109Y-59618242D01*
X94138871Y-59713480D01*
X94043633Y-59761099D01*
%TO.C,U6*%
X114692804Y-54201569D02*
X114692804Y-53392045D01*
X114645185Y-53296807D01*
X114597566Y-53249188D01*
X114502328Y-53201569D01*
X114311852Y-53201569D01*
X114216614Y-53249188D01*
X114168995Y-53296807D01*
X114121376Y-53392045D01*
X114121376Y-54201569D01*
X113216614Y-54201569D02*
X113407090Y-54201569D01*
X113502328Y-54153950D01*
X113549947Y-54106330D01*
X113645185Y-53963473D01*
X113692804Y-53772997D01*
X113692804Y-53392045D01*
X113645185Y-53296807D01*
X113597566Y-53249188D01*
X113502328Y-53201569D01*
X113311852Y-53201569D01*
X113216614Y-53249188D01*
X113168995Y-53296807D01*
X113121376Y-53392045D01*
X113121376Y-53630140D01*
X113168995Y-53725378D01*
X113216614Y-53772997D01*
X113311852Y-53820616D01*
X113502328Y-53820616D01*
X113597566Y-53772997D01*
X113645185Y-53725378D01*
X113692804Y-53630140D01*
X99935452Y-61225121D02*
X99173547Y-61225121D01*
X106031452Y-64120721D02*
X105269547Y-64120721D01*
X105650500Y-63739769D02*
X105650500Y-64501673D01*
%TO.C,C10*%
X91560725Y-77458462D02*
X91560725Y-77525806D01*
X91493381Y-77660493D01*
X91426038Y-77727836D01*
X91291351Y-77795180D01*
X91156664Y-77795180D01*
X91055649Y-77761508D01*
X90887290Y-77660493D01*
X90786275Y-77559478D01*
X90685259Y-77391119D01*
X90651588Y-77290104D01*
X90651588Y-77155417D01*
X90718931Y-77020730D01*
X90786275Y-76953386D01*
X90920962Y-76886043D01*
X90988305Y-76886043D01*
X92301504Y-76852371D02*
X91897443Y-77256432D01*
X92099473Y-77054401D02*
X91392366Y-76347294D01*
X91426038Y-76515653D01*
X91426038Y-76650340D01*
X91392366Y-76751356D01*
X92032130Y-75707531D02*
X92099473Y-75640188D01*
X92200488Y-75606516D01*
X92267832Y-75606516D01*
X92368847Y-75640188D01*
X92537206Y-75741203D01*
X92705565Y-75909562D01*
X92806580Y-76077920D01*
X92840252Y-76178936D01*
X92840252Y-76246279D01*
X92806580Y-76347294D01*
X92739236Y-76414638D01*
X92638221Y-76448310D01*
X92570878Y-76448310D01*
X92469862Y-76414638D01*
X92301504Y-76313623D01*
X92133145Y-76145264D01*
X92032130Y-75976905D01*
X91998458Y-75875890D01*
X91998458Y-75808546D01*
X92032130Y-75707531D01*
%TO.C,L1*%
X95622417Y-78095284D02*
X95959135Y-78432002D01*
X95252028Y-79139108D01*
X95016326Y-77489192D02*
X95420387Y-77893253D01*
X95218356Y-77691223D02*
X94511249Y-78398330D01*
X94679608Y-78364658D01*
X94814295Y-78364658D01*
X94915310Y-78398330D01*
%TO.C,C8*%
X95442931Y-77878257D02*
X95442931Y-77945600D01*
X95375587Y-78080287D01*
X95308244Y-78147631D01*
X95173556Y-78214974D01*
X95038869Y-78214974D01*
X94937854Y-78181303D01*
X94769495Y-78080287D01*
X94668480Y-77979272D01*
X94567465Y-77810913D01*
X94533793Y-77709898D01*
X94533793Y-77575211D01*
X94601137Y-77440524D01*
X94668480Y-77373180D01*
X94803167Y-77305837D01*
X94870511Y-77305837D01*
X95510274Y-77137478D02*
X95409259Y-77171150D01*
X95341915Y-77171150D01*
X95240900Y-77137478D01*
X95207228Y-77103806D01*
X95173556Y-77002791D01*
X95173556Y-76935448D01*
X95207228Y-76834432D01*
X95341915Y-76699745D01*
X95442931Y-76666074D01*
X95510274Y-76666074D01*
X95611289Y-76699745D01*
X95644961Y-76733417D01*
X95678633Y-76834432D01*
X95678633Y-76901776D01*
X95644961Y-77002791D01*
X95510274Y-77137478D01*
X95476602Y-77238493D01*
X95476602Y-77305837D01*
X95510274Y-77406852D01*
X95644961Y-77541539D01*
X95745976Y-77575211D01*
X95813320Y-77575211D01*
X95914335Y-77541539D01*
X96049022Y-77406852D01*
X96082694Y-77305837D01*
X96082694Y-77238493D01*
X96049022Y-77137478D01*
X95914335Y-77002791D01*
X95813320Y-76969119D01*
X95745976Y-76969119D01*
X95644961Y-77002791D01*
%TO.C,C19*%
X103268542Y-64017942D02*
X103220923Y-64065561D01*
X103078066Y-64113180D01*
X102982828Y-64113180D01*
X102839971Y-64065561D01*
X102744733Y-63970323D01*
X102697114Y-63875085D01*
X102649495Y-63684609D01*
X102649495Y-63541752D01*
X102697114Y-63351276D01*
X102744733Y-63256038D01*
X102839971Y-63160800D01*
X102982828Y-63113180D01*
X103078066Y-63113180D01*
X103220923Y-63160800D01*
X103268542Y-63208419D01*
X104220923Y-64113180D02*
X103649495Y-64113180D01*
X103935209Y-64113180D02*
X103935209Y-63113180D01*
X103839971Y-63256038D01*
X103744733Y-63351276D01*
X103649495Y-63398895D01*
X104697114Y-64113180D02*
X104887590Y-64113180D01*
X104982828Y-64065561D01*
X105030447Y-64017942D01*
X105125685Y-63875085D01*
X105173304Y-63684609D01*
X105173304Y-63303657D01*
X105125685Y-63208419D01*
X105078066Y-63160800D01*
X104982828Y-63113180D01*
X104792352Y-63113180D01*
X104697114Y-63160800D01*
X104649495Y-63208419D01*
X104601876Y-63303657D01*
X104601876Y-63541752D01*
X104649495Y-63636990D01*
X104697114Y-63684609D01*
X104792352Y-63732228D01*
X104982828Y-63732228D01*
X105078066Y-63684609D01*
X105125685Y-63636990D01*
X105173304Y-63541752D01*
%TO.C,C16*%
X89909725Y-66815862D02*
X89909725Y-66883206D01*
X89842381Y-67017893D01*
X89775038Y-67085236D01*
X89640351Y-67152580D01*
X89505664Y-67152580D01*
X89404649Y-67118908D01*
X89236290Y-67017893D01*
X89135275Y-66916878D01*
X89034259Y-66748519D01*
X89000588Y-66647504D01*
X89000588Y-66512817D01*
X89067931Y-66378130D01*
X89135275Y-66310786D01*
X89269962Y-66243443D01*
X89337305Y-66243443D01*
X90650504Y-66209771D02*
X90246443Y-66613832D01*
X90448473Y-66411801D02*
X89741366Y-65704694D01*
X89775038Y-65873053D01*
X89775038Y-66007740D01*
X89741366Y-66108756D01*
X90549488Y-64896572D02*
X90414801Y-65031259D01*
X90381130Y-65132275D01*
X90381130Y-65199618D01*
X90414801Y-65367977D01*
X90515817Y-65536336D01*
X90785191Y-65805710D01*
X90886206Y-65839381D01*
X90953549Y-65839381D01*
X91054565Y-65805710D01*
X91189252Y-65671023D01*
X91222923Y-65570007D01*
X91222923Y-65502664D01*
X91189252Y-65401649D01*
X91020893Y-65233290D01*
X90919878Y-65199618D01*
X90852534Y-65199618D01*
X90751519Y-65233290D01*
X90616832Y-65367977D01*
X90583160Y-65468992D01*
X90583160Y-65536336D01*
X90616832Y-65637351D01*
%TO.C,R1*%
X92732180Y-62168066D02*
X92255990Y-62501400D01*
X92732180Y-62739495D02*
X91732180Y-62739495D01*
X91732180Y-62358542D01*
X91779800Y-62263304D01*
X91827419Y-62215685D01*
X91922657Y-62168066D01*
X92065514Y-62168066D01*
X92160752Y-62215685D01*
X92208371Y-62263304D01*
X92255990Y-62358542D01*
X92255990Y-62739495D01*
X92732180Y-61215685D02*
X92732180Y-61787114D01*
X92732180Y-61501400D02*
X91732180Y-61501400D01*
X91875038Y-61596638D01*
X91970276Y-61691876D01*
X92017895Y-61787114D01*
%TO.C,C14*%
X85257713Y-77130280D02*
X85257713Y-77197624D01*
X85190369Y-77332311D01*
X85123026Y-77399654D01*
X84988339Y-77466998D01*
X84853652Y-77466998D01*
X84752637Y-77433326D01*
X84584278Y-77332311D01*
X84483263Y-77231296D01*
X84382247Y-77062937D01*
X84348576Y-76961922D01*
X84348576Y-76827235D01*
X84415919Y-76692548D01*
X84483263Y-76625204D01*
X84617950Y-76557861D01*
X84685293Y-76557861D01*
X85998492Y-76524189D02*
X85594431Y-76928250D01*
X85796461Y-76726219D02*
X85089354Y-76019112D01*
X85123026Y-76187471D01*
X85123026Y-76322158D01*
X85089354Y-76423174D01*
X86133179Y-75446693D02*
X86604583Y-75918097D01*
X85695446Y-75345677D02*
X86032163Y-76019112D01*
X86469896Y-75581380D01*
%TO.C,J1*%
X78625204Y-78931476D02*
X77825204Y-78931476D01*
X78625204Y-78474333D01*
X77825204Y-78474333D01*
X77863300Y-77674333D02*
X77825204Y-77750523D01*
X77825204Y-77864809D01*
X77863300Y-77979095D01*
X77939490Y-78055285D01*
X78015680Y-78093380D01*
X78168061Y-78131476D01*
X78282347Y-78131476D01*
X78434728Y-78093380D01*
X78510919Y-78055285D01*
X78587109Y-77979095D01*
X78625204Y-77864809D01*
X78625204Y-77788619D01*
X78587109Y-77674333D01*
X78549014Y-77636238D01*
X78282347Y-77636238D01*
X78282347Y-77788619D01*
X78206157Y-77026714D02*
X78206157Y-77293380D01*
X78625204Y-77293380D02*
X77825204Y-77293380D01*
X77825204Y-76912428D01*
X78206157Y-76341000D02*
X78206157Y-76607666D01*
X78625204Y-76607666D02*
X77825204Y-76607666D01*
X77825204Y-76226714D01*
X78701395Y-76112428D02*
X78701395Y-75502904D01*
X77825204Y-74969571D02*
X77825204Y-75121952D01*
X77863300Y-75198142D01*
X77901395Y-75236238D01*
X78015680Y-75312428D01*
X78168061Y-75350523D01*
X78472823Y-75350523D01*
X78549014Y-75312428D01*
X78587109Y-75274333D01*
X78625204Y-75198142D01*
X78625204Y-75045761D01*
X78587109Y-74969571D01*
X78549014Y-74931476D01*
X78472823Y-74893380D01*
X78282347Y-74893380D01*
X78206157Y-74931476D01*
X78168061Y-74969571D01*
X78129966Y-75045761D01*
X78129966Y-75198142D01*
X78168061Y-75274333D01*
X78206157Y-75312428D01*
X78282347Y-75350523D01*
X77825204Y-74626714D02*
X77825204Y-74093380D01*
X78625204Y-74436238D01*
X78625204Y-73788619D02*
X77825204Y-73788619D01*
X77825204Y-73483857D01*
X77863300Y-73407666D01*
X77901395Y-73369571D01*
X77977585Y-73331476D01*
X78091871Y-73331476D01*
X78168061Y-73369571D01*
X78206157Y-73407666D01*
X78244252Y-73483857D01*
X78244252Y-73788619D01*
X78701395Y-73179095D02*
X78701395Y-72569571D01*
X78625204Y-72379095D02*
X77825204Y-72379095D01*
X78396633Y-72112428D01*
X77825204Y-71845761D01*
X78625204Y-71845761D01*
X78701395Y-71655285D02*
X78701395Y-71045761D01*
X78625204Y-70855285D02*
X77825204Y-70855285D01*
X78625204Y-70398142D02*
X78168061Y-70741000D01*
X77825204Y-70398142D02*
X78282347Y-70855285D01*
X78206157Y-70055285D02*
X78206157Y-69788619D01*
X78625204Y-69674333D02*
X78625204Y-70055285D01*
X77825204Y-70055285D01*
X77825204Y-69674333D01*
X78244252Y-69179095D02*
X78625204Y-69179095D01*
X77825204Y-69445761D02*
X78244252Y-69179095D01*
X77825204Y-68912428D01*
X78701395Y-68836238D02*
X78701395Y-68226714D01*
X78625204Y-68036238D02*
X77825204Y-68036238D01*
X77825204Y-67731476D01*
X77863300Y-67655285D01*
X77901395Y-67617190D01*
X77977585Y-67579095D01*
X78091871Y-67579095D01*
X78168061Y-67617190D01*
X78206157Y-67655285D01*
X78244252Y-67731476D01*
X78244252Y-68036238D01*
X78625204Y-67121952D02*
X78587109Y-67198142D01*
X78510919Y-67236238D01*
X77825204Y-67236238D01*
X78091871Y-66474333D02*
X78625204Y-66474333D01*
X78091871Y-66817190D02*
X78510919Y-66817190D01*
X78587109Y-66779095D01*
X78625204Y-66702904D01*
X78625204Y-66588619D01*
X78587109Y-66512428D01*
X78549014Y-66474333D01*
X78091871Y-65750523D02*
X78739490Y-65750523D01*
X78815680Y-65788619D01*
X78853776Y-65826714D01*
X78891871Y-65902904D01*
X78891871Y-66017190D01*
X78853776Y-66093380D01*
X78587109Y-65750523D02*
X78625204Y-65826714D01*
X78625204Y-65979095D01*
X78587109Y-66055285D01*
X78549014Y-66093380D01*
X78472823Y-66131476D01*
X78244252Y-66131476D01*
X78168061Y-66093380D01*
X78129966Y-66055285D01*
X78091871Y-65979095D01*
X78091871Y-65826714D01*
X78129966Y-65750523D01*
%TO.C,Y1*%
X86090469Y-78666965D02*
X86427187Y-78330247D01*
X85955782Y-79273056D02*
X86090469Y-78666965D01*
X85484378Y-78801652D01*
X85585393Y-77488454D02*
X85989454Y-77892515D01*
X85787423Y-77690484D02*
X85080317Y-78397591D01*
X85248675Y-78363919D01*
X85383362Y-78363919D01*
X85484378Y-78397591D01*
%TO.C,C1*%
X90493342Y-62168066D02*
X90540961Y-62215685D01*
X90588580Y-62358542D01*
X90588580Y-62453780D01*
X90540961Y-62596638D01*
X90445723Y-62691876D01*
X90350485Y-62739495D01*
X90160009Y-62787114D01*
X90017152Y-62787114D01*
X89826676Y-62739495D01*
X89731438Y-62691876D01*
X89636200Y-62596638D01*
X89588580Y-62453780D01*
X89588580Y-62358542D01*
X89636200Y-62215685D01*
X89683819Y-62168066D01*
X90588580Y-61215685D02*
X90588580Y-61787114D01*
X90588580Y-61501400D02*
X89588580Y-61501400D01*
X89731438Y-61596638D01*
X89826676Y-61691876D01*
X89874295Y-61787114D01*
D11*
%TO.C,D2*%
X101562800Y-67232200D02*
X103847800Y-67232200D01*
X101562800Y-65762200D02*
X101562800Y-67232200D01*
X103847800Y-65762200D02*
X101562800Y-65762200D01*
%TO.C,D1*%
X101588200Y-68984800D02*
X103873200Y-68984800D01*
X101588200Y-67514800D02*
X101588200Y-68984800D01*
X103873200Y-67514800D02*
X101588200Y-67514800D01*
%TO.C,C12*%
X96749107Y-68604790D02*
X96901610Y-68757293D01*
X96239990Y-69113907D02*
X96392493Y-69266410D01*
%TO.C,R5*%
X100178359Y-68629800D02*
X100485641Y-68629800D01*
X100178359Y-67869800D02*
X100485641Y-67869800D01*
%TO.C,C5*%
X99365410Y-73456293D02*
X99212907Y-73303790D01*
X98856293Y-73965410D02*
X98703790Y-73812907D01*
%TO.C,C4*%
X96773210Y-61842764D02*
X96773210Y-62058436D01*
X96053210Y-61842764D02*
X96053210Y-62058436D01*
%TO.C,C13*%
X89992810Y-78410307D02*
X89840307Y-78562810D01*
X89483693Y-77901190D02*
X89331190Y-78053693D01*
%TO.C,C11*%
X91524801Y-76571282D02*
X91677304Y-76418779D01*
X92033918Y-77080399D02*
X92186421Y-76927896D01*
%TO.C,C15*%
X89848687Y-65994513D02*
X90001190Y-65842010D01*
X90357804Y-66503630D02*
X90510307Y-66351127D01*
%TO.C,C6*%
X97058931Y-79304434D02*
X97211434Y-79151931D01*
X96549814Y-78795317D02*
X96702317Y-78642814D01*
%TO.C,C18*%
X80208800Y-61801983D02*
X80208800Y-62017655D01*
X80928800Y-61801983D02*
X80928800Y-62017655D01*
%TO.C,R2*%
X99012859Y-71991260D02*
X99230140Y-72208541D01*
X99550260Y-71453859D02*
X99767541Y-71671140D01*
%TO.C,U2*%
X92329000Y-67682903D02*
X91993124Y-68018778D01*
X88637903Y-71374000D02*
X88973778Y-71038124D01*
X88973778Y-71709876D02*
X88637903Y-71374000D01*
X96020097Y-71374000D02*
X95684222Y-71709876D01*
X91993124Y-74729222D02*
X92329000Y-75065097D01*
X95684222Y-71038124D02*
X96020097Y-71374000D01*
X92664876Y-68018778D02*
X92329000Y-67682903D01*
%TO.C,R6*%
X100201759Y-66877200D02*
X100509041Y-66877200D01*
X100201759Y-66117200D02*
X100509041Y-66117200D01*
%TO.C,C3*%
X97303000Y-61842764D02*
X97303000Y-62058436D01*
X98023000Y-61842764D02*
X98023000Y-62058436D01*
%TO.C,R4*%
X80796159Y-72670400D02*
X81103441Y-72670400D01*
X80796159Y-73430400D02*
X81103441Y-73430400D01*
%TO.C,U3*%
X104951000Y-81823000D02*
X97551000Y-81823000D01*
X104951000Y-79023000D02*
X104951000Y-81823000D01*
X97551000Y-79023000D02*
X97551000Y-81823000D01*
X97551000Y-79023000D02*
X104951000Y-79023000D01*
X99782100Y-80248200D02*
X100467900Y-80248200D01*
X100467900Y-80248200D02*
X100467900Y-80781600D01*
X100467900Y-80781600D02*
X99782100Y-80781600D01*
X99782100Y-80781600D02*
X99782100Y-80248200D01*
G36*
X99782100Y-80248200D02*
G01*
X100467900Y-80248200D01*
X100467900Y-80781600D01*
X99782100Y-80781600D01*
X99782100Y-80248200D01*
G37*
%TO.C,C17*%
X97586190Y-72389493D02*
X97738693Y-72236990D01*
X98095307Y-72898610D02*
X98247810Y-72746107D01*
%TO.C,C2*%
X90377600Y-61893564D02*
X90377600Y-62109236D01*
X89657600Y-61893564D02*
X89657600Y-62109236D01*
%TO.C,C9*%
X95681190Y-75489307D02*
X95833693Y-75641810D01*
X96190307Y-74980190D02*
X96342810Y-75132693D01*
%TO.C,U5*%
X105352000Y-73811000D02*
X102352000Y-73811000D01*
X102352000Y-73811000D02*
X102352000Y-76811000D01*
X102352000Y-76811000D02*
X105352000Y-76811000D01*
X105352000Y-76811000D02*
X105352000Y-73811000D01*
%TO.C,C7*%
X98628810Y-74269093D02*
X98476307Y-74116590D01*
X98119693Y-74778210D02*
X97967190Y-74625707D01*
%TO.C,R3*%
X80770759Y-73813400D02*
X81078041Y-73813400D01*
X80770759Y-74573400D02*
X81078041Y-74573400D01*
%TO.C,L2*%
X97151341Y-74388940D02*
X96934060Y-74171659D01*
X96613940Y-74926341D02*
X96396659Y-74709060D01*
%TO.C,U4*%
X81583600Y-67774400D02*
X81583600Y-69449400D01*
X81323600Y-67774400D02*
X81583600Y-67774400D01*
X81323600Y-62324400D02*
X81583600Y-62324400D01*
X86773600Y-65049400D02*
X86773600Y-67774400D01*
X86773600Y-65049400D02*
X86773600Y-62324400D01*
X81323600Y-65049400D02*
X81323600Y-62324400D01*
X86773600Y-67774400D02*
X86513600Y-67774400D01*
X81323600Y-65049400D02*
X81323600Y-67774400D01*
X86773600Y-62324400D02*
X86513600Y-62324400D01*
%TO.C,U1*%
X93805538Y-60863004D02*
X94605538Y-60863004D01*
X93805538Y-63983004D02*
X93005538Y-63983004D01*
X93805538Y-60863004D02*
X92005538Y-60863004D01*
X93805538Y-63983004D02*
X94605538Y-63983004D01*
%TO.C,U6*%
X101078500Y-63963550D02*
X101053100Y-63963550D01*
X101053100Y-64001650D02*
X101053100Y-63671450D01*
X104355100Y-64001650D02*
X104355100Y-63671450D01*
X104355100Y-60356750D02*
X104355100Y-60686950D01*
X104355100Y-60356750D02*
X101053100Y-60356750D01*
X101053100Y-64001650D02*
X104355100Y-64001650D01*
X101053100Y-60356750D02*
X101053100Y-60686950D01*
%TO.C,C10*%
X92761307Y-77902410D02*
X92913810Y-77749907D01*
X92252190Y-77393293D02*
X92404693Y-77240790D01*
%TO.C,L1*%
X96389341Y-77309940D02*
X96172060Y-77092659D01*
X95851940Y-77847341D02*
X95634659Y-77630060D01*
%TO.C,C8*%
X94309693Y-76356814D02*
X94157190Y-76509317D01*
X94818810Y-76865931D02*
X94666307Y-77018434D01*
%TO.C,C19*%
X103803564Y-65180800D02*
X104019236Y-65180800D01*
X103803564Y-64460800D02*
X104019236Y-64460800D01*
%TO.C,C16*%
X91110307Y-67259810D02*
X91262810Y-67107307D01*
X90601190Y-66750693D02*
X90753693Y-66598190D01*
%TO.C,R1*%
X90729800Y-61847759D02*
X90729800Y-62155041D01*
X91489800Y-61847759D02*
X91489800Y-62155041D01*
%TO.C,C14*%
X84970310Y-75781237D02*
X84817807Y-75933740D01*
X84461193Y-75272120D02*
X84308690Y-75424623D01*
%TO.C,J1*%
X105422700Y-70002400D02*
X105575100Y-69850000D01*
X75272900Y-65786000D02*
X75272900Y-80594200D01*
X75544700Y-64287400D02*
X78244700Y-64287400D01*
X105575100Y-69850000D02*
X105575100Y-60401200D01*
X75552300Y-80873600D02*
X79057500Y-80873600D01*
X75272900Y-64008000D02*
X75272900Y-61645800D01*
X79565500Y-60401200D02*
X79565500Y-60858400D01*
X79565500Y-81381600D02*
X79565500Y-81838800D01*
X75552300Y-65506600D02*
X78244700Y-65506600D01*
X75552300Y-61366400D02*
X79057500Y-61366400D01*
X105575100Y-72390000D02*
X105575100Y-81838800D01*
X79844900Y-82118200D02*
X105295700Y-82118200D01*
X105422700Y-72237600D02*
X105575100Y-72390000D01*
X79844900Y-60121800D02*
X105295700Y-60121800D01*
X79565500Y-81838800D02*
G75*
G03*
X79844900Y-82118200I279399J-1D01*
G01*
X105422700Y-70002400D02*
G75*
G03*
X105422700Y-72237600I0J-1117600D01*
G01*
X79565500Y-81381600D02*
G75*
G03*
X79057500Y-80873600I-508001J-1D01*
G01*
X75272900Y-80594200D02*
G75*
G03*
X75552300Y-80873600I279399J-1D01*
G01*
X105295700Y-82118200D02*
G75*
G03*
X105575100Y-81838800I1J279399D01*
G01*
X79844900Y-60121800D02*
G75*
G03*
X79565500Y-60401200I0J-279400D01*
G01*
X105575100Y-60401200D02*
G75*
G03*
X105295700Y-60121800I-279400J0D01*
G01*
X75272900Y-64008000D02*
G75*
G03*
X75552300Y-64287400I279400J0D01*
G01*
X75552300Y-65506600D02*
G75*
G03*
X75272900Y-65786000I0J-279400D01*
G01*
X78244700Y-65506600D02*
G75*
G03*
X78244700Y-64287400I0J609600D01*
G01*
X75552300Y-61366400D02*
G75*
G03*
X75272900Y-61645800I0J-279400D01*
G01*
X79057500Y-61366400D02*
G75*
G03*
X79565500Y-60858400I0J508000D01*
G01*
G36*
X78600300Y-80391000D02*
G01*
X77838300Y-79883000D01*
X78600300Y-79375000D01*
X78600300Y-80391000D01*
G37*
D12*
X78600300Y-80391000D02*
X77838300Y-79883000D01*
X78600300Y-79375000D01*
X78600300Y-80391000D01*
D11*
%TO.C,Y1*%
X87750487Y-79161940D02*
X90083940Y-76828487D01*
X90083940Y-76828487D02*
X87255513Y-74000060D01*
%TO.C,C1*%
X89336200Y-61893564D02*
X89336200Y-62109236D01*
X88616200Y-61893564D02*
X88616200Y-62109236D01*
%TD*%
M02*
