%TF.GenerationSoftware,KiCad,Pcbnew,6.0.7-f9a2dced07~116~ubuntu22.04.1*%
%TF.CreationDate,2022-09-27T00:14:19+08:00*%
%TF.ProjectId,esp32_core_m2,65737033-325f-4636-9f72-655f6d322e6b,rev?*%
%TF.SameCoordinates,Original*%
%TF.FileFunction,Copper,L4,Bot*%
%TF.FilePolarity,Positive*%
%FSLAX46Y46*%
G04 Gerber Fmt 4.6, Leading zero omitted, Abs format (unit mm)*
G04 Created by KiCad (PCBNEW 6.0.7-f9a2dced07~116~ubuntu22.04.1) date 2022-09-27 00:14:19*
%MOMM*%
%LPD*%
G01*
G04 APERTURE LIST*
G04 Aperture macros list*
%AMRotRect*
0 Rectangle, with rotation*
0 The origin of the aperture is its center*
0 $1 length*
0 $2 width*
0 $3 Rotation angle, in degrees counterclockwise*
0 Add horizontal line*
21,1,$1,$2,0,0,$3*%
G04 Aperture macros list end*
%TA.AperFunction,ComponentPad*%
%ADD10C,0.500000*%
%TD*%
%TA.AperFunction,SMDPad,CuDef*%
%ADD11RotRect,2.500000X2.500000X135.000000*%
%TD*%
%TA.AperFunction,SMDPad,CuDef*%
%ADD12R,1.600000X0.350000*%
%TD*%
%TA.AperFunction,ViaPad*%
%ADD13C,0.609600*%
%TD*%
%TA.AperFunction,Conductor*%
%ADD14C,0.203200*%
%TD*%
%TA.AperFunction,Conductor*%
%ADD15C,0.508000*%
%TD*%
G04 APERTURE END LIST*
D10*
%TO.P,U2,33,GND*%
%TO.N,GND*%
X92329000Y-71374000D03*
X90914786Y-71374000D03*
X92329000Y-72788214D03*
X93743214Y-71374000D03*
X91621893Y-70666893D03*
X93036107Y-72081107D03*
X93036107Y-70666893D03*
D11*
X92329000Y-71374000D03*
D10*
X91621893Y-72081107D03*
X92329000Y-69959786D03*
%TD*%
D12*
%TO.P,J1,2,2*%
%TO.N,unconnected-(J1-Pad2)*%
X76568300Y-80120000D03*
%TO.P,J1,4,4*%
%TO.N,unconnected-(J1-Pad4)*%
X76568300Y-79620000D03*
%TO.P,J1,6,6*%
%TO.N,unconnected-(J1-Pad6)*%
X76568300Y-79120000D03*
%TO.P,J1,8,8*%
%TO.N,unconnected-(J1-Pad8)*%
X76568300Y-78620000D03*
%TO.P,J1,10,10*%
%TO.N,unconnected-(J1-Pad10)*%
X76568300Y-78120000D03*
%TO.P,J1,12,12*%
%TO.N,unconnected-(J1-Pad12)*%
X76568300Y-77620000D03*
%TO.P,J1,14,14*%
%TO.N,unconnected-(J1-Pad14)*%
X76568300Y-77120000D03*
%TO.P,J1,16,16*%
%TO.N,unconnected-(J1-Pad16)*%
X76568300Y-76620000D03*
%TO.P,J1,18,18*%
%TO.N,unconnected-(J1-Pad18)*%
X76568300Y-76120000D03*
%TO.P,J1,20,20*%
%TO.N,unconnected-(J1-Pad20)*%
X76568300Y-75620000D03*
%TO.P,J1,22,22*%
%TO.N,/GPIO0*%
X76568300Y-75120000D03*
%TO.P,J1,24,24*%
%TO.N,/GPIO1*%
X76568300Y-74620000D03*
%TO.P,J1,26,26*%
%TO.N,/GPIO2*%
X76568300Y-74120000D03*
%TO.P,J1,28,28*%
%TO.N,/GPIO3*%
X76568300Y-73620000D03*
%TO.P,J1,30,30*%
%TO.N,/GPIO4*%
X76568300Y-73120000D03*
%TO.P,J1,32,32*%
%TO.N,/GPIO5*%
X76568300Y-72620000D03*
%TO.P,J1,34,34*%
%TO.N,unconnected-(J1-Pad34)*%
X76568300Y-72120000D03*
%TO.P,J1,36,36*%
%TO.N,unconnected-(J1-Pad36)*%
X76568300Y-71620000D03*
%TO.P,J1,38,38*%
%TO.N,unconnected-(J1-Pad38)*%
X76568300Y-71120000D03*
%TO.P,J1,40,40*%
%TO.N,unconnected-(J1-Pad40)*%
X76568300Y-70620000D03*
%TO.P,J1,42,42*%
%TO.N,unconnected-(J1-Pad42)*%
X76568300Y-70120000D03*
%TO.P,J1,44,44*%
%TO.N,unconnected-(J1-Pad44)*%
X76568300Y-69620000D03*
%TO.P,J1,46,46*%
%TO.N,/GPIO6*%
X76568300Y-69120000D03*
%TO.P,J1,48,48*%
%TO.N,/GPIO7*%
X76568300Y-68620000D03*
%TO.P,J1,50,50*%
%TO.N,/GPIO8*%
X76568300Y-68120000D03*
%TO.P,J1,52,52*%
%TO.N,/GPIO9*%
X76568300Y-67620000D03*
%TO.P,J1,54,54*%
%TO.N,/GPIO10*%
X76568300Y-67120000D03*
%TO.P,J1,56,56*%
%TO.N,/GPIO15*%
X76568300Y-66620000D03*
%TO.P,J1,58,58*%
%TO.N,/GPIO16*%
X76568300Y-66120000D03*
%TO.P,J1,68,68*%
%TO.N,+5V*%
X76568300Y-63620000D03*
%TO.P,J1,70,70*%
X76568300Y-63120000D03*
%TO.P,J1,72,72*%
X76568300Y-62620000D03*
%TO.P,J1,74,74*%
X76568300Y-62120000D03*
%TD*%
D13*
%TO.N,GND*%
X96393000Y-63322200D03*
X101092000Y-64820800D03*
X102057200Y-64795400D03*
X102666800Y-61341000D03*
%TO.N,+3V3*%
X103047800Y-63068200D03*
%TO.N,/GPIO0*%
X94727572Y-74434023D03*
%TO.N,/GPIO1*%
X95351600Y-73914000D03*
%TO.N,/GPIO2*%
X96251166Y-73278500D03*
%TO.N,/GPIO3*%
X96545400Y-71602600D03*
%TO.N,/GPIO4*%
X97685746Y-71073179D03*
%TO.N,/GPIO5*%
X97688400Y-70154800D03*
%TO.N,/GPIO6*%
X95529400Y-66598800D03*
%TO.N,/GPIO7*%
X95275400Y-65709800D03*
%TO.N,/GPIO8*%
X94843600Y-64998600D03*
%TO.N,/GPIO9*%
X92862400Y-64414400D03*
%TO.N,/GPIO10*%
X91617800Y-64262000D03*
%TO.N,/GPIO14*%
X81737200Y-65277500D03*
X84759800Y-65277500D03*
%TO.N,/GPIO15*%
X86087941Y-66342660D03*
X87731600Y-63728600D03*
%TO.N,/GPIO16*%
X86995000Y-63094100D03*
X85369400Y-65963800D03*
%TO.N,GND*%
X81667350Y-76657200D03*
X102927150Y-78282800D03*
X87172800Y-80314800D03*
X80733900Y-78613000D03*
X101060250Y-78282800D03*
X101993700Y-78282800D03*
X85305900Y-79324200D03*
X80733900Y-77647800D03*
X82600800Y-76657200D03*
X85305900Y-80314800D03*
X79800450Y-76657200D03*
X87172800Y-81280000D03*
X80721200Y-63373000D03*
X91967050Y-79222600D03*
X86239350Y-81280000D03*
X94767400Y-79222600D03*
X82600800Y-77647800D03*
X103860600Y-78282800D03*
X91033600Y-81178400D03*
X88417400Y-74498200D03*
X82600800Y-78613000D03*
X81667350Y-78613000D03*
X85369400Y-70053200D03*
X91033600Y-80213200D03*
X90144600Y-63550800D03*
X85305900Y-81280000D03*
X91033600Y-79222600D03*
X91967050Y-80213200D03*
X93833950Y-81178400D03*
X97967800Y-77825600D03*
X83439000Y-81280000D03*
X92900500Y-79222600D03*
X86239350Y-80314800D03*
X85826600Y-74676000D03*
X84372450Y-81280000D03*
X78867000Y-76657200D03*
X83439000Y-79324200D03*
X84372450Y-80314800D03*
X100126800Y-78282800D03*
X97053400Y-73406000D03*
X80733900Y-76657200D03*
X92900500Y-81178400D03*
X79800450Y-78613000D03*
X78587600Y-62966600D03*
X78867000Y-77647800D03*
X84372450Y-79324200D03*
X94767400Y-81178400D03*
X93833950Y-80213200D03*
X92900500Y-80213200D03*
X91967050Y-81178400D03*
X78867000Y-78613000D03*
X81667350Y-77647800D03*
X93833950Y-79222600D03*
X87172800Y-79324200D03*
X94767400Y-80213200D03*
X79800450Y-77647800D03*
X83439000Y-80314800D03*
X86239350Y-79324200D03*
X90017600Y-75920600D03*
%TO.N,+5V*%
X87833200Y-61518800D03*
%TO.N,/CHIP_EN*%
X79730600Y-63881000D03*
X98610438Y-70477362D03*
%TO.N,+3V3*%
X97028000Y-67792600D03*
X82143600Y-63042800D03*
X100558600Y-71348600D03*
X88773000Y-63627000D03*
X99618800Y-61468000D03*
X93497400Y-78181200D03*
%TD*%
D14*
%TO.N,/CHIP_EN*%
X98310700Y-67424300D02*
X94462600Y-63576200D01*
X98310700Y-67424300D02*
X98310700Y-70177624D01*
X98310700Y-70177624D02*
X98610438Y-70477362D01*
%TO.N,/GPIO4*%
X97685746Y-71073179D02*
X97679923Y-71073179D01*
X97679923Y-71073179D02*
X94002544Y-67395800D01*
X84058328Y-73120000D02*
X76568300Y-73120000D01*
X94002544Y-67395800D02*
X89782528Y-67395800D01*
X89782528Y-67395800D02*
X84058328Y-73120000D01*
%TO.N,/CHIP_EN*%
X82931000Y-63982600D02*
X79832200Y-63982600D01*
X79832200Y-63982600D02*
X79730600Y-63881000D01*
X94462600Y-63576200D02*
X91414600Y-63576200D01*
X91414600Y-63576200D02*
X90043000Y-62204600D01*
X90043000Y-62204600D02*
X84709000Y-62204600D01*
X84709000Y-62204600D02*
X82931000Y-63982600D01*
%TO.N,/GPIO5*%
X97688400Y-70154800D02*
X94523000Y-66989400D01*
X94523000Y-66989400D02*
X89614192Y-66989400D01*
X89614192Y-66989400D02*
X83983592Y-72620000D01*
X83983592Y-72620000D02*
X76568300Y-72620000D01*
%TO.N,/GPIO8*%
X85242400Y-68122800D02*
X85239600Y-68120000D01*
X85239600Y-68120000D02*
X76568300Y-68120000D01*
X86417272Y-68122800D02*
X85242400Y-68122800D01*
X88769872Y-65770200D02*
X86417272Y-68122800D01*
X94072000Y-65770200D02*
X88769872Y-65770200D01*
X94843600Y-64998600D02*
X94072000Y-65770200D01*
%TO.N,/GPIO7*%
X95275400Y-65709800D02*
X94808600Y-66176600D01*
X94808600Y-66176600D02*
X88938208Y-66176600D01*
X88938208Y-66176600D02*
X86494808Y-68620000D01*
X86494808Y-68620000D02*
X76568300Y-68620000D01*
%TO.N,/GPIO6*%
X95529400Y-66598800D02*
X95513600Y-66583000D01*
X95513600Y-66583000D02*
X89106544Y-66583000D01*
X89106544Y-66583000D02*
X86569544Y-69120000D01*
X86569544Y-69120000D02*
X76568300Y-69120000D01*
%TO.N,/GPIO0*%
X90455736Y-69021400D02*
X84357136Y-75120000D01*
X94742000Y-74419595D02*
X94742000Y-70434200D01*
X94727572Y-74434023D02*
X94742000Y-74419595D01*
X84357136Y-75120000D02*
X76568300Y-75120000D01*
X94742000Y-70434200D02*
X93329200Y-69021400D01*
X93329200Y-69021400D02*
X90455736Y-69021400D01*
%TO.N,/GPIO1*%
X90287400Y-68615000D02*
X84282400Y-74620000D01*
X95377000Y-70494464D02*
X93497536Y-68615000D01*
X95351600Y-73914000D02*
X95377000Y-73888600D01*
X93497536Y-68615000D02*
X90287400Y-68615000D01*
X84282400Y-74620000D02*
X76568300Y-74620000D01*
X95377000Y-73888600D02*
X95377000Y-70494464D01*
%TO.N,/GPIO2*%
X84207800Y-74120000D02*
X76568300Y-74120000D01*
X96251166Y-73278500D02*
X95885000Y-72912334D01*
X95885000Y-70427728D02*
X93665872Y-68208600D01*
X93665872Y-68208600D02*
X90119200Y-68208600D01*
X90119200Y-68208600D02*
X84207800Y-74120000D01*
X95885000Y-72912334D02*
X95885000Y-70427728D01*
%TO.N,/GPIO3*%
X96545400Y-70513392D02*
X93834208Y-67802200D01*
X89950864Y-67802200D02*
X84133064Y-73620000D01*
X84133064Y-73620000D02*
X76568300Y-73620000D01*
X96545400Y-71602600D02*
X96545400Y-70513392D01*
X93834208Y-67802200D02*
X89950864Y-67802200D01*
%TO.N,/GPIO9*%
X78262600Y-67620000D02*
X76568300Y-67620000D01*
X86345336Y-67620000D02*
X76568300Y-67620000D01*
X92862400Y-64414400D02*
X91913000Y-65363800D01*
X91913000Y-65363800D02*
X88601536Y-65363800D01*
X88601536Y-65363800D02*
X86345336Y-67620000D01*
%TO.N,/GPIO10*%
X86258400Y-67124003D02*
X88425003Y-64957400D01*
X78473800Y-67120000D02*
X78486000Y-67132200D01*
X88425003Y-64957400D02*
X90922400Y-64957400D01*
X76568300Y-67120000D02*
X78473800Y-67120000D01*
X78486000Y-67132200D02*
X86258400Y-67132200D01*
X90922400Y-64957400D02*
X91617800Y-64262000D01*
X86258400Y-67132200D02*
X86258400Y-67124003D01*
%TO.N,/GPIO14*%
X81737200Y-65277500D02*
X84759800Y-65277500D01*
%TO.N,/GPIO15*%
X87731600Y-64699001D02*
X86087941Y-66342660D01*
X87731600Y-63728600D02*
X87731600Y-64699001D01*
X86087941Y-66342660D02*
X85810601Y-66620000D01*
X85810601Y-66620000D02*
X76568300Y-66620000D01*
%TO.N,/GPIO16*%
X85213200Y-66120000D02*
X85369400Y-65963800D01*
X76568300Y-66120000D02*
X85213200Y-66120000D01*
X86995000Y-63094100D02*
X86995000Y-64338200D01*
X86995000Y-64338200D02*
X85369400Y-65963800D01*
D15*
%TO.N,+5V*%
X80187800Y-61518800D02*
X87833200Y-61518800D01*
X79586600Y-62120000D02*
X80187800Y-61518800D01*
X76568300Y-62120000D02*
X79586600Y-62120000D01*
D14*
%TO.N,unconnected-(J1-Pad34)*%
X76568300Y-72120000D02*
X76574500Y-72113800D01*
%TD*%
%TA.AperFunction,Conductor*%
%TO.N,GND*%
G36*
X99071117Y-60650302D02*
G01*
X99117610Y-60703958D01*
X99127714Y-60774232D01*
X99098220Y-60838812D01*
X99091153Y-60846324D01*
X99018707Y-60917269D01*
X98984550Y-60950718D01*
X98885708Y-61104090D01*
X98883299Y-61110710D01*
X98883297Y-61110713D01*
X98846646Y-61211411D01*
X98823302Y-61275549D01*
X98800434Y-61456573D01*
X98801121Y-61463580D01*
X98801121Y-61463583D01*
X98808776Y-61541652D01*
X98818239Y-61638164D01*
X98875833Y-61811299D01*
X98879482Y-61817324D01*
X98947862Y-61930232D01*
X98970354Y-61967371D01*
X99097103Y-62098623D01*
X99102995Y-62102478D01*
X99102999Y-62102482D01*
X99243885Y-62194675D01*
X99249781Y-62198533D01*
X99256385Y-62200989D01*
X99256387Y-62200990D01*
X99335290Y-62230334D01*
X99420800Y-62262135D01*
X99601660Y-62286267D01*
X99608671Y-62285629D01*
X99608675Y-62285629D01*
X99748380Y-62272914D01*
X99783371Y-62269729D01*
X99790073Y-62267551D01*
X99790075Y-62267551D01*
X99950205Y-62215522D01*
X99950208Y-62215521D01*
X99956904Y-62213345D01*
X99981752Y-62198533D01*
X100107577Y-62123527D01*
X100107580Y-62123525D01*
X100113632Y-62119917D01*
X100216563Y-62021897D01*
X100240662Y-61998948D01*
X100240664Y-61998945D01*
X100245766Y-61994087D01*
X100346739Y-61842110D01*
X100385467Y-61740158D01*
X100409033Y-61678122D01*
X100409034Y-61678117D01*
X100411533Y-61671539D01*
X100413371Y-61658462D01*
X100436376Y-61494775D01*
X100436376Y-61494770D01*
X100436927Y-61490852D01*
X100437246Y-61468000D01*
X100416907Y-61286675D01*
X100356901Y-61114361D01*
X100260211Y-60959624D01*
X100146467Y-60845084D01*
X100112660Y-60782654D01*
X100117972Y-60711856D01*
X100160716Y-60655169D01*
X100227323Y-60630590D01*
X100235873Y-60630300D01*
X104940600Y-60630300D01*
X105008721Y-60650302D01*
X105055214Y-60703958D01*
X105066600Y-60756300D01*
X105066600Y-69432878D01*
X105046598Y-69500999D01*
X104992942Y-69547492D01*
X104968636Y-69555719D01*
X104942055Y-69561786D01*
X104937667Y-69563508D01*
X104937661Y-69563510D01*
X104719575Y-69649102D01*
X104719572Y-69649104D01*
X104715183Y-69650826D01*
X104639111Y-69694746D01*
X104508197Y-69770329D01*
X104508193Y-69770332D01*
X104504117Y-69772685D01*
X104415557Y-69843310D01*
X104344118Y-69900281D01*
X104313570Y-69924642D01*
X104310367Y-69928095D01*
X104310366Y-69928095D01*
X104254288Y-69988533D01*
X104147799Y-70103300D01*
X104145143Y-70107196D01*
X104145138Y-70107202D01*
X104016393Y-70296037D01*
X104010507Y-70304670D01*
X104008461Y-70308918D01*
X104008459Y-70308922D01*
X103965187Y-70398778D01*
X103904761Y-70524253D01*
X103903372Y-70528755D01*
X103903370Y-70528761D01*
X103876225Y-70616765D01*
X103832924Y-70757144D01*
X103832223Y-70761794D01*
X103832222Y-70761799D01*
X103817965Y-70856393D01*
X103796600Y-70998141D01*
X103796600Y-71241859D01*
X103812830Y-71349541D01*
X103830385Y-71466008D01*
X103832924Y-71482856D01*
X103858098Y-71564467D01*
X103900402Y-71701615D01*
X103904761Y-71715747D01*
X103918402Y-71744072D01*
X104007119Y-71928294D01*
X104010507Y-71935330D01*
X104013165Y-71939229D01*
X104013167Y-71939232D01*
X104145138Y-72132798D01*
X104145143Y-72132804D01*
X104147799Y-72136700D01*
X104151009Y-72140160D01*
X104151011Y-72140162D01*
X104259838Y-72257449D01*
X104313570Y-72315358D01*
X104317248Y-72318291D01*
X104317250Y-72318293D01*
X104355814Y-72349047D01*
X104504117Y-72467315D01*
X104508193Y-72469668D01*
X104508197Y-72469671D01*
X104603452Y-72524666D01*
X104715183Y-72589174D01*
X104719572Y-72590896D01*
X104719575Y-72590898D01*
X104937661Y-72676490D01*
X104937667Y-72676492D01*
X104942055Y-72678214D01*
X104946661Y-72679265D01*
X104946660Y-72679265D01*
X104968636Y-72684281D01*
X105030598Y-72718939D01*
X105063987Y-72781594D01*
X105066600Y-72807122D01*
X105066600Y-81483700D01*
X105046598Y-81551821D01*
X104992942Y-81598314D01*
X104940600Y-81609700D01*
X80200000Y-81609700D01*
X80131879Y-81589698D01*
X80085386Y-81536042D01*
X80074000Y-81483700D01*
X80074000Y-81434850D01*
X80075746Y-81413945D01*
X80078270Y-81398944D01*
X80078270Y-81398941D01*
X80079076Y-81394152D01*
X80079229Y-81381600D01*
X80078539Y-81376778D01*
X80076262Y-81360875D01*
X80075470Y-81353999D01*
X80062862Y-81209904D01*
X80062861Y-81209898D01*
X80062381Y-81204412D01*
X80047598Y-81149240D01*
X80017769Y-81037918D01*
X80017768Y-81037916D01*
X80016346Y-81032608D01*
X79972663Y-80938929D01*
X79943501Y-80876390D01*
X79943499Y-80876387D01*
X79941178Y-80871409D01*
X79839159Y-80725710D01*
X79713390Y-80599941D01*
X79708882Y-80596784D01*
X79708879Y-80596782D01*
X79572196Y-80501076D01*
X79567692Y-80497922D01*
X79544440Y-80487079D01*
X79411481Y-80425080D01*
X79411477Y-80425079D01*
X79406492Y-80422754D01*
X79234688Y-80376719D01*
X79103377Y-80365230D01*
X79093516Y-80363971D01*
X79070052Y-80360024D01*
X79063707Y-80359947D01*
X79062360Y-80359930D01*
X79062357Y-80359930D01*
X79057500Y-80359871D01*
X79031558Y-80363586D01*
X79029876Y-80363827D01*
X79012014Y-80365100D01*
X78002800Y-80365100D01*
X77934679Y-80345098D01*
X77888186Y-80291442D01*
X77876800Y-80239100D01*
X77876800Y-79896866D01*
X77876432Y-79893475D01*
X77876431Y-79893465D01*
X77875360Y-79883607D01*
X77875360Y-79856393D01*
X77876431Y-79846535D01*
X77876432Y-79846525D01*
X77876800Y-79843134D01*
X77876800Y-79396866D01*
X77876432Y-79393475D01*
X77876431Y-79393465D01*
X77875360Y-79383607D01*
X77875360Y-79356393D01*
X77876431Y-79346535D01*
X77876432Y-79346525D01*
X77876800Y-79343134D01*
X77876800Y-78896866D01*
X77876432Y-78893475D01*
X77876431Y-78893465D01*
X77875360Y-78883607D01*
X77875360Y-78856393D01*
X77876431Y-78846535D01*
X77876432Y-78846525D01*
X77876800Y-78843134D01*
X77876800Y-78396866D01*
X77876432Y-78393475D01*
X77876431Y-78393465D01*
X77875360Y-78383607D01*
X77875360Y-78356393D01*
X77876431Y-78346535D01*
X77876432Y-78346525D01*
X77876800Y-78343134D01*
X77876800Y-78169773D01*
X92679034Y-78169773D01*
X92679721Y-78176780D01*
X92679721Y-78176783D01*
X92689367Y-78275157D01*
X92696839Y-78351364D01*
X92754433Y-78524499D01*
X92848954Y-78680571D01*
X92975703Y-78811823D01*
X92981595Y-78815678D01*
X92981599Y-78815682D01*
X93122485Y-78907875D01*
X93128381Y-78911733D01*
X93134985Y-78914189D01*
X93134987Y-78914190D01*
X93213891Y-78943534D01*
X93299400Y-78975335D01*
X93480260Y-78999467D01*
X93487271Y-78998829D01*
X93487275Y-78998829D01*
X93626980Y-78986114D01*
X93661971Y-78982929D01*
X93668673Y-78980751D01*
X93668675Y-78980751D01*
X93828805Y-78928722D01*
X93828808Y-78928721D01*
X93835504Y-78926545D01*
X93860352Y-78911733D01*
X93986177Y-78836727D01*
X93986180Y-78836725D01*
X93992232Y-78833117D01*
X94063539Y-78765212D01*
X94119262Y-78712148D01*
X94119264Y-78712145D01*
X94124366Y-78707287D01*
X94225339Y-78555310D01*
X94240338Y-78515825D01*
X94287633Y-78391322D01*
X94287634Y-78391317D01*
X94290133Y-78384739D01*
X94291113Y-78377767D01*
X94314976Y-78207975D01*
X94314976Y-78207970D01*
X94315527Y-78204052D01*
X94315846Y-78181200D01*
X94295507Y-77999875D01*
X94235501Y-77827561D01*
X94138811Y-77672824D01*
X94074247Y-77607808D01*
X94015204Y-77548351D01*
X94015200Y-77548348D01*
X94010241Y-77543354D01*
X93999057Y-77536256D01*
X93950851Y-77505664D01*
X93856183Y-77445586D01*
X93749490Y-77407594D01*
X93690927Y-77386740D01*
X93690925Y-77386739D01*
X93684293Y-77384378D01*
X93677307Y-77383545D01*
X93677303Y-77383544D01*
X93547726Y-77368094D01*
X93503114Y-77362774D01*
X93496111Y-77363510D01*
X93496110Y-77363510D01*
X93449875Y-77368370D01*
X93321651Y-77381846D01*
X93314983Y-77384116D01*
X93155590Y-77438378D01*
X93155587Y-77438379D01*
X93148923Y-77440648D01*
X92993514Y-77536256D01*
X92863150Y-77663918D01*
X92764308Y-77817290D01*
X92761899Y-77823910D01*
X92761897Y-77823913D01*
X92704310Y-77982132D01*
X92701902Y-77988749D01*
X92679034Y-78169773D01*
X77876800Y-78169773D01*
X77876800Y-77896866D01*
X77876432Y-77893475D01*
X77876431Y-77893465D01*
X77875360Y-77883607D01*
X77875360Y-77856393D01*
X77876431Y-77846535D01*
X77876432Y-77846525D01*
X77876800Y-77843134D01*
X77876800Y-77396866D01*
X77876432Y-77393475D01*
X77876431Y-77393465D01*
X77875360Y-77383607D01*
X77875360Y-77356393D01*
X77876431Y-77346535D01*
X77876432Y-77346525D01*
X77876800Y-77343134D01*
X77876800Y-76896866D01*
X77876432Y-76893475D01*
X77876431Y-76893465D01*
X77875360Y-76883607D01*
X77875360Y-76856393D01*
X77876431Y-76846535D01*
X77876432Y-76846525D01*
X77876800Y-76843134D01*
X77876800Y-76396866D01*
X77876432Y-76393475D01*
X77876431Y-76393465D01*
X77875360Y-76383607D01*
X77875360Y-76356393D01*
X77876431Y-76346535D01*
X77876432Y-76346525D01*
X77876800Y-76343134D01*
X77876800Y-75896866D01*
X77876432Y-75893475D01*
X77876431Y-75893465D01*
X77875360Y-75883607D01*
X77875360Y-75856393D01*
X77876800Y-75843137D01*
X77878389Y-75843310D01*
X77899953Y-75782327D01*
X77956053Y-75738815D01*
X78002098Y-75730100D01*
X84281458Y-75730100D01*
X84292010Y-75730598D01*
X84299264Y-75732219D01*
X84364731Y-75730162D01*
X84368688Y-75730100D01*
X84395519Y-75730100D01*
X84399446Y-75729604D01*
X84400352Y-75729547D01*
X84410996Y-75728708D01*
X84453335Y-75727378D01*
X84471722Y-75722036D01*
X84491079Y-75718028D01*
X84502201Y-75716623D01*
X84502202Y-75716623D01*
X84510068Y-75715629D01*
X84520640Y-75711444D01*
X84549454Y-75700036D01*
X84560681Y-75696192D01*
X84593745Y-75686585D01*
X84593747Y-75686584D01*
X84601361Y-75684372D01*
X84617841Y-75674626D01*
X84635581Y-75665935D01*
X84653390Y-75658884D01*
X84687668Y-75633980D01*
X84697588Y-75627464D01*
X84727215Y-75609943D01*
X84727218Y-75609941D01*
X84734042Y-75605905D01*
X84747569Y-75592378D01*
X84762603Y-75579537D01*
X84771683Y-75572940D01*
X84771684Y-75572939D01*
X84778098Y-75568279D01*
X84805110Y-75535627D01*
X84813099Y-75526848D01*
X87542118Y-72797830D01*
X91270710Y-72797830D01*
X91270841Y-72799663D01*
X91275092Y-72806278D01*
X91785789Y-73316975D01*
X91787331Y-73318543D01*
X91837882Y-73370890D01*
X91843857Y-73375833D01*
X91852638Y-73383824D01*
X92001374Y-73532560D01*
X92006458Y-73537122D01*
X92046331Y-73569182D01*
X92059681Y-73577404D01*
X92176786Y-73630648D01*
X92193841Y-73635635D01*
X92320111Y-73653718D01*
X92337889Y-73653718D01*
X92464159Y-73635635D01*
X92481214Y-73630648D01*
X92598317Y-73577405D01*
X92611670Y-73569182D01*
X92651544Y-73537122D01*
X92656626Y-73532561D01*
X92856074Y-73333113D01*
X92858277Y-73330962D01*
X92908237Y-73283386D01*
X92917396Y-73272470D01*
X92924824Y-73264363D01*
X93379678Y-72809510D01*
X93387291Y-72795567D01*
X93387160Y-72793733D01*
X93382909Y-72787119D01*
X93298919Y-72703129D01*
X93288830Y-72697620D01*
X93286107Y-72704921D01*
X93286107Y-72753107D01*
X93266105Y-72821228D01*
X93212449Y-72867721D01*
X93160107Y-72879107D01*
X93145115Y-72879107D01*
X93129876Y-72883582D01*
X93128671Y-72884972D01*
X93127000Y-72892655D01*
X93127000Y-72912214D01*
X93106998Y-72980335D01*
X93053342Y-73026828D01*
X93001000Y-73038214D01*
X91657000Y-73038214D01*
X91588879Y-73018212D01*
X91542386Y-72964556D01*
X91531000Y-72912214D01*
X91531000Y-72897222D01*
X91526525Y-72881983D01*
X91525135Y-72880778D01*
X91517452Y-72879107D01*
X91497893Y-72879107D01*
X91429772Y-72859105D01*
X91383279Y-72805449D01*
X91371893Y-72753107D01*
X91371893Y-72708432D01*
X91368656Y-72697407D01*
X91361565Y-72700645D01*
X91278324Y-72783886D01*
X91270710Y-72797830D01*
X87542118Y-72797830D01*
X87819849Y-72520099D01*
X91871893Y-72520099D01*
X91876368Y-72535338D01*
X91877758Y-72536543D01*
X91885441Y-72538214D01*
X92060885Y-72538214D01*
X92076124Y-72533739D01*
X92077329Y-72532349D01*
X92079000Y-72524666D01*
X92079000Y-72520099D01*
X92579000Y-72520099D01*
X92583475Y-72535338D01*
X92584865Y-72536543D01*
X92592548Y-72538214D01*
X92767992Y-72538214D01*
X92783231Y-72533739D01*
X92784436Y-72532349D01*
X92786107Y-72524666D01*
X92786107Y-72349222D01*
X92781632Y-72333983D01*
X92780242Y-72332778D01*
X92772559Y-72331107D01*
X92597115Y-72331107D01*
X92581876Y-72335582D01*
X92580671Y-72336972D01*
X92579000Y-72344655D01*
X92579000Y-72520099D01*
X92079000Y-72520099D01*
X92079000Y-72349222D01*
X92074525Y-72333983D01*
X92073135Y-72332778D01*
X92065452Y-72331107D01*
X91890008Y-72331107D01*
X91874769Y-72335582D01*
X91873564Y-72336972D01*
X91871893Y-72344655D01*
X91871893Y-72520099D01*
X87819849Y-72520099D01*
X88957059Y-71382889D01*
X90049282Y-71382889D01*
X90067365Y-71509159D01*
X90072352Y-71526214D01*
X90125595Y-71643317D01*
X90133818Y-71656670D01*
X90165884Y-71696551D01*
X90170428Y-71701615D01*
X90371653Y-71902839D01*
X90373195Y-71904409D01*
X90423669Y-71956677D01*
X90429634Y-71961612D01*
X90438411Y-71969598D01*
X90893494Y-72424680D01*
X90907432Y-72432291D01*
X90909268Y-72432159D01*
X90915880Y-72427910D01*
X90999871Y-72343919D01*
X91005380Y-72333830D01*
X90998079Y-72331107D01*
X90949893Y-72331107D01*
X90881772Y-72311105D01*
X90835279Y-72257449D01*
X90823893Y-72205107D01*
X90823893Y-72190115D01*
X90819418Y-72174876D01*
X90818028Y-72173671D01*
X90810345Y-72172000D01*
X90790786Y-72172000D01*
X90722665Y-72151998D01*
X90676172Y-72098342D01*
X90664786Y-72046000D01*
X90664786Y-71812992D01*
X91164786Y-71812992D01*
X91169261Y-71828231D01*
X91170651Y-71829436D01*
X91178334Y-71831107D01*
X91353778Y-71831107D01*
X91369017Y-71826632D01*
X91370222Y-71825242D01*
X91371893Y-71817559D01*
X91371893Y-71812992D01*
X93286107Y-71812992D01*
X93290582Y-71828231D01*
X93291972Y-71829436D01*
X93299655Y-71831107D01*
X93475099Y-71831107D01*
X93490338Y-71826632D01*
X93491543Y-71825242D01*
X93493214Y-71817559D01*
X93493214Y-71642115D01*
X93488739Y-71626876D01*
X93487349Y-71625671D01*
X93479666Y-71624000D01*
X93304222Y-71624000D01*
X93288983Y-71628475D01*
X93287778Y-71629865D01*
X93286107Y-71637548D01*
X93286107Y-71812992D01*
X91371893Y-71812992D01*
X91371893Y-71642115D01*
X91367418Y-71626876D01*
X91366028Y-71625671D01*
X91358345Y-71624000D01*
X91182901Y-71624000D01*
X91167662Y-71628475D01*
X91166457Y-71629865D01*
X91164786Y-71637548D01*
X91164786Y-71812992D01*
X90664786Y-71812992D01*
X90664786Y-71105885D01*
X91164786Y-71105885D01*
X91169261Y-71121124D01*
X91170651Y-71122329D01*
X91178334Y-71124000D01*
X91353778Y-71124000D01*
X91369017Y-71119525D01*
X91370222Y-71118135D01*
X91371893Y-71110452D01*
X91371893Y-71105885D01*
X92579000Y-71105885D01*
X92583475Y-71121124D01*
X92584865Y-71122329D01*
X92592548Y-71124000D01*
X92767992Y-71124000D01*
X92783231Y-71119525D01*
X92784436Y-71118135D01*
X92786107Y-71110452D01*
X92786107Y-71105885D01*
X93286107Y-71105885D01*
X93290582Y-71121124D01*
X93291972Y-71122329D01*
X93299655Y-71124000D01*
X93475099Y-71124000D01*
X93490338Y-71119525D01*
X93491543Y-71118135D01*
X93493214Y-71110452D01*
X93493214Y-70935008D01*
X93488739Y-70919769D01*
X93487349Y-70918564D01*
X93479666Y-70916893D01*
X93304222Y-70916893D01*
X93288983Y-70921368D01*
X93287778Y-70922758D01*
X93286107Y-70930441D01*
X93286107Y-71105885D01*
X92786107Y-71105885D01*
X92786107Y-70935008D01*
X92781632Y-70919769D01*
X92780242Y-70918564D01*
X92772559Y-70916893D01*
X92597115Y-70916893D01*
X92581876Y-70921368D01*
X92580671Y-70922758D01*
X92579000Y-70930441D01*
X92579000Y-71105885D01*
X91371893Y-71105885D01*
X91371893Y-70935008D01*
X91367418Y-70919769D01*
X91366028Y-70918564D01*
X91358345Y-70916893D01*
X91182901Y-70916893D01*
X91167662Y-70921368D01*
X91166457Y-70922758D01*
X91164786Y-70930441D01*
X91164786Y-71105885D01*
X90664786Y-71105885D01*
X90664786Y-70702000D01*
X90684788Y-70633879D01*
X90738444Y-70587386D01*
X90790786Y-70576000D01*
X90805778Y-70576000D01*
X90821017Y-70571525D01*
X90822222Y-70570135D01*
X90823893Y-70562452D01*
X90823893Y-70542893D01*
X90843895Y-70474772D01*
X90897551Y-70428279D01*
X90949893Y-70416893D01*
X90994568Y-70416893D01*
X91005593Y-70413656D01*
X91002355Y-70406565D01*
X90994568Y-70398778D01*
X91871893Y-70398778D01*
X91876368Y-70414017D01*
X91877758Y-70415222D01*
X91885441Y-70416893D01*
X92060885Y-70416893D01*
X92076124Y-70412418D01*
X92077329Y-70411028D01*
X92079000Y-70403345D01*
X92079000Y-70398778D01*
X92579000Y-70398778D01*
X92583475Y-70414017D01*
X92584865Y-70415222D01*
X92592548Y-70416893D01*
X92767992Y-70416893D01*
X92783231Y-70412418D01*
X92784436Y-70411028D01*
X92786107Y-70403345D01*
X92786107Y-70227901D01*
X92781632Y-70212662D01*
X92780242Y-70211457D01*
X92772559Y-70209786D01*
X92597115Y-70209786D01*
X92581876Y-70214261D01*
X92580671Y-70215651D01*
X92579000Y-70223334D01*
X92579000Y-70398778D01*
X92079000Y-70398778D01*
X92079000Y-70227901D01*
X92074525Y-70212662D01*
X92073135Y-70211457D01*
X92065452Y-70209786D01*
X91890008Y-70209786D01*
X91874769Y-70214261D01*
X91873564Y-70215651D01*
X91871893Y-70223334D01*
X91871893Y-70398778D01*
X90994568Y-70398778D01*
X90919114Y-70323324D01*
X90905170Y-70315710D01*
X90903335Y-70315841D01*
X90896725Y-70320089D01*
X90384980Y-70831833D01*
X90384043Y-70832760D01*
X90328692Y-70886964D01*
X90327605Y-70888297D01*
X90319057Y-70897757D01*
X90170440Y-71046374D01*
X90165878Y-71051458D01*
X90133818Y-71091331D01*
X90125596Y-71104681D01*
X90072352Y-71221786D01*
X90067365Y-71238841D01*
X90049282Y-71365111D01*
X90049282Y-71382889D01*
X88957059Y-71382889D01*
X90671543Y-69668405D01*
X90733855Y-69634379D01*
X90760638Y-69631500D01*
X91281123Y-69631500D01*
X91349244Y-69651502D01*
X91395737Y-69705158D01*
X91405841Y-69775432D01*
X91376347Y-69840012D01*
X91370218Y-69846595D01*
X91278321Y-69938492D01*
X91270709Y-69952432D01*
X91270841Y-69954268D01*
X91275090Y-69960880D01*
X91359081Y-70044871D01*
X91369170Y-70050380D01*
X91371893Y-70043079D01*
X91371893Y-69994893D01*
X91391895Y-69926772D01*
X91445551Y-69880279D01*
X91497893Y-69868893D01*
X91512885Y-69868893D01*
X91528124Y-69864418D01*
X91529329Y-69863028D01*
X91531000Y-69855345D01*
X91531000Y-69835786D01*
X91551002Y-69767665D01*
X91604658Y-69721172D01*
X91657000Y-69709786D01*
X93001000Y-69709786D01*
X93069121Y-69729788D01*
X93115614Y-69783444D01*
X93127000Y-69835786D01*
X93127000Y-69850778D01*
X93131475Y-69866017D01*
X93132865Y-69867222D01*
X93140548Y-69868893D01*
X93160107Y-69868893D01*
X93228228Y-69888895D01*
X93274721Y-69942551D01*
X93286107Y-69994893D01*
X93286107Y-70398778D01*
X93290582Y-70414017D01*
X93291972Y-70415222D01*
X93299655Y-70416893D01*
X93708107Y-70416893D01*
X93776228Y-70436895D01*
X93822721Y-70490551D01*
X93834107Y-70542893D01*
X93834107Y-70557885D01*
X93838582Y-70573124D01*
X93839972Y-70574329D01*
X93847655Y-70576000D01*
X93867214Y-70576000D01*
X93935335Y-70596002D01*
X93981828Y-70649658D01*
X93993214Y-70702000D01*
X93993214Y-72046000D01*
X93973212Y-72114121D01*
X93919556Y-72160614D01*
X93867214Y-72172000D01*
X93852222Y-72172000D01*
X93836983Y-72176475D01*
X93835778Y-72177865D01*
X93834107Y-72185548D01*
X93834107Y-72205107D01*
X93814105Y-72273228D01*
X93760449Y-72319721D01*
X93708107Y-72331107D01*
X93663432Y-72331107D01*
X93652407Y-72334344D01*
X93655645Y-72341435D01*
X93738886Y-72424676D01*
X93752830Y-72432290D01*
X93754663Y-72432159D01*
X93761278Y-72427908D01*
X93916805Y-72272381D01*
X93979117Y-72238355D01*
X94049932Y-72243420D01*
X94106768Y-72285967D01*
X94131579Y-72352487D01*
X94131900Y-72361476D01*
X94131900Y-73825997D01*
X94111898Y-73894118D01*
X94102283Y-73905923D01*
X94102809Y-73906352D01*
X94098358Y-73911809D01*
X94093322Y-73916741D01*
X93994480Y-74070113D01*
X93992071Y-74076733D01*
X93992069Y-74076736D01*
X93955439Y-74177377D01*
X93932074Y-74241572D01*
X93909206Y-74422596D01*
X93909893Y-74429603D01*
X93909893Y-74429606D01*
X93919539Y-74527980D01*
X93927011Y-74604187D01*
X93984605Y-74777322D01*
X94079126Y-74933394D01*
X94205875Y-75064646D01*
X94211767Y-75068501D01*
X94211771Y-75068505D01*
X94352657Y-75160698D01*
X94358553Y-75164556D01*
X94365157Y-75167012D01*
X94365159Y-75167013D01*
X94444062Y-75196357D01*
X94529572Y-75228158D01*
X94710432Y-75252290D01*
X94717443Y-75251652D01*
X94717447Y-75251652D01*
X94857152Y-75238937D01*
X94892143Y-75235752D01*
X94898845Y-75233574D01*
X94898847Y-75233574D01*
X95058977Y-75181545D01*
X95058980Y-75181544D01*
X95065676Y-75179368D01*
X95090524Y-75164556D01*
X95216349Y-75089550D01*
X95216352Y-75089548D01*
X95222404Y-75085940D01*
X95293711Y-75018035D01*
X95349434Y-74964971D01*
X95349436Y-74964968D01*
X95354538Y-74960110D01*
X95455511Y-74808133D01*
X95465576Y-74781637D01*
X95508465Y-74725059D01*
X95544428Y-74706548D01*
X95683005Y-74661522D01*
X95683008Y-74661521D01*
X95689704Y-74659345D01*
X95771019Y-74610872D01*
X95840377Y-74569527D01*
X95840380Y-74569525D01*
X95846432Y-74565917D01*
X95917739Y-74498012D01*
X95973462Y-74444948D01*
X95973464Y-74444945D01*
X95978566Y-74440087D01*
X96079539Y-74288110D01*
X96121603Y-74177377D01*
X96164492Y-74120799D01*
X96231161Y-74096390D01*
X96231195Y-74096389D01*
X96234026Y-74096767D01*
X96240420Y-74096185D01*
X96240424Y-74096185D01*
X96369494Y-74084438D01*
X96415737Y-74080229D01*
X96422439Y-74078051D01*
X96422441Y-74078051D01*
X96582571Y-74026022D01*
X96582574Y-74026021D01*
X96589270Y-74023845D01*
X96595321Y-74020238D01*
X96739943Y-73934027D01*
X96739946Y-73934025D01*
X96745998Y-73930417D01*
X96817305Y-73862512D01*
X96873028Y-73809448D01*
X96873030Y-73809445D01*
X96878132Y-73804587D01*
X96979105Y-73652610D01*
X97007673Y-73577404D01*
X97041399Y-73488622D01*
X97041400Y-73488617D01*
X97043899Y-73482039D01*
X97044879Y-73475067D01*
X97068742Y-73305275D01*
X97068742Y-73305270D01*
X97069293Y-73301352D01*
X97069612Y-73278500D01*
X97049273Y-73097175D01*
X96989267Y-72924861D01*
X96909890Y-72797830D01*
X96896310Y-72776098D01*
X96892577Y-72770124D01*
X96820577Y-72697620D01*
X96768970Y-72645651D01*
X96768966Y-72645648D01*
X96764007Y-72640654D01*
X96725499Y-72616216D01*
X96678700Y-72562827D01*
X96668195Y-72492612D01*
X96697319Y-72427864D01*
X96754077Y-72389998D01*
X96804573Y-72373591D01*
X96876805Y-72350122D01*
X96876808Y-72350121D01*
X96883504Y-72347945D01*
X96894425Y-72341435D01*
X97034177Y-72258127D01*
X97034180Y-72258125D01*
X97040232Y-72254517D01*
X97133252Y-72165935D01*
X97167262Y-72133548D01*
X97167264Y-72133545D01*
X97172366Y-72128687D01*
X97273339Y-71976710D01*
X97291859Y-71927956D01*
X97334748Y-71871378D01*
X97401416Y-71846969D01*
X97453563Y-71854601D01*
X97487746Y-71867314D01*
X97668606Y-71891446D01*
X97675617Y-71890808D01*
X97675621Y-71890808D01*
X97815326Y-71878093D01*
X97850317Y-71874908D01*
X97857019Y-71872730D01*
X97857021Y-71872730D01*
X98017151Y-71820701D01*
X98017154Y-71820700D01*
X98023850Y-71818524D01*
X98065349Y-71793786D01*
X98174523Y-71728706D01*
X98174526Y-71728704D01*
X98180578Y-71725096D01*
X98286739Y-71624000D01*
X98307608Y-71604127D01*
X98307610Y-71604124D01*
X98312712Y-71599266D01*
X98413685Y-71447289D01*
X98438149Y-71382889D01*
X98441718Y-71373493D01*
X98469250Y-71337173D01*
X99740234Y-71337173D01*
X99740921Y-71344180D01*
X99740921Y-71344183D01*
X99744716Y-71382889D01*
X99758039Y-71518764D01*
X99815633Y-71691899D01*
X99819282Y-71697924D01*
X99899941Y-71831107D01*
X99910154Y-71847971D01*
X99915045Y-71853036D01*
X99915046Y-71853037D01*
X99978814Y-71919070D01*
X100036903Y-71979223D01*
X100042795Y-71983078D01*
X100042799Y-71983082D01*
X100183685Y-72075275D01*
X100189581Y-72079133D01*
X100196185Y-72081589D01*
X100196187Y-72081590D01*
X100275091Y-72110934D01*
X100360600Y-72142735D01*
X100541460Y-72166867D01*
X100548471Y-72166229D01*
X100548475Y-72166229D01*
X100688180Y-72153514D01*
X100723171Y-72150329D01*
X100729873Y-72148151D01*
X100729875Y-72148151D01*
X100890005Y-72096122D01*
X100890008Y-72096121D01*
X100896704Y-72093945D01*
X100924526Y-72077360D01*
X101047377Y-72004127D01*
X101047380Y-72004125D01*
X101053432Y-72000517D01*
X101129628Y-71927956D01*
X101180462Y-71879548D01*
X101180464Y-71879545D01*
X101185566Y-71874687D01*
X101286539Y-71722710D01*
X101308554Y-71664756D01*
X101348833Y-71558722D01*
X101348834Y-71558717D01*
X101351333Y-71552139D01*
X101357009Y-71511755D01*
X101376176Y-71375375D01*
X101376176Y-71375370D01*
X101376727Y-71371452D01*
X101377046Y-71348600D01*
X101356707Y-71167275D01*
X101343476Y-71129279D01*
X101314605Y-71046374D01*
X101296701Y-70994961D01*
X101210708Y-70857343D01*
X101203744Y-70846198D01*
X101200011Y-70840224D01*
X101113038Y-70752642D01*
X101076404Y-70715751D01*
X101076400Y-70715748D01*
X101071441Y-70710754D01*
X101060257Y-70703656D01*
X101012051Y-70673064D01*
X100917383Y-70612986D01*
X100775469Y-70562452D01*
X100752127Y-70554140D01*
X100752125Y-70554139D01*
X100745493Y-70551778D01*
X100738507Y-70550945D01*
X100738503Y-70550944D01*
X100596601Y-70534024D01*
X100564314Y-70530174D01*
X100557311Y-70530910D01*
X100557310Y-70530910D01*
X100511075Y-70535770D01*
X100382851Y-70549246D01*
X100376183Y-70551516D01*
X100216790Y-70605778D01*
X100216787Y-70605779D01*
X100210123Y-70608048D01*
X100054714Y-70703656D01*
X100049681Y-70708585D01*
X99969055Y-70787540D01*
X99924350Y-70831318D01*
X99825508Y-70984690D01*
X99823099Y-70991310D01*
X99823097Y-70991313D01*
X99771568Y-71132889D01*
X99763102Y-71156149D01*
X99740234Y-71337173D01*
X98469250Y-71337173D01*
X98484607Y-71316915D01*
X98551276Y-71292506D01*
X98576164Y-71293343D01*
X98593298Y-71295629D01*
X98600309Y-71294991D01*
X98600313Y-71294991D01*
X98740018Y-71282276D01*
X98775009Y-71279091D01*
X98781711Y-71276913D01*
X98781713Y-71276913D01*
X98941843Y-71224884D01*
X98941846Y-71224883D01*
X98948542Y-71222707D01*
X98972757Y-71208272D01*
X99099215Y-71132889D01*
X99099218Y-71132887D01*
X99105270Y-71129279D01*
X99192111Y-71046581D01*
X99232300Y-71008310D01*
X99232302Y-71008307D01*
X99237404Y-71003449D01*
X99338377Y-70851472D01*
X99393265Y-70706979D01*
X99400671Y-70687484D01*
X99400672Y-70687479D01*
X99403171Y-70680901D01*
X99428565Y-70500214D01*
X99428884Y-70477362D01*
X99408545Y-70296037D01*
X99348539Y-70123723D01*
X99251849Y-69968986D01*
X99157555Y-69874032D01*
X99128242Y-69844513D01*
X99128238Y-69844510D01*
X99123279Y-69839516D01*
X99117331Y-69835741D01*
X98979286Y-69748135D01*
X98932487Y-69694746D01*
X98920800Y-69641750D01*
X98920800Y-67499978D01*
X98921298Y-67489426D01*
X98922919Y-67482172D01*
X98920862Y-67416705D01*
X98920800Y-67412748D01*
X98920800Y-67385917D01*
X98920304Y-67381990D01*
X98920247Y-67381084D01*
X98919408Y-67370435D01*
X98918327Y-67336028D01*
X98918078Y-67328101D01*
X98912736Y-67309714D01*
X98908728Y-67290357D01*
X98907323Y-67279237D01*
X98906329Y-67271368D01*
X98890735Y-67231980D01*
X98886893Y-67220757D01*
X98877285Y-67187690D01*
X98877284Y-67187688D01*
X98875072Y-67180074D01*
X98865325Y-67163593D01*
X98856633Y-67145851D01*
X98849584Y-67128046D01*
X98824681Y-67093769D01*
X98818165Y-67083849D01*
X98800643Y-67054222D01*
X98796605Y-67047394D01*
X98783078Y-67033867D01*
X98770237Y-67018833D01*
X98763640Y-67009753D01*
X98763639Y-67009752D01*
X98758979Y-67003338D01*
X98726327Y-66976326D01*
X98717548Y-66968337D01*
X94947521Y-63198310D01*
X94940409Y-63190494D01*
X94936426Y-63184217D01*
X94888669Y-63139370D01*
X94885827Y-63136615D01*
X94866865Y-63117653D01*
X94863738Y-63115227D01*
X94863097Y-63114662D01*
X94854937Y-63107693D01*
X94824058Y-63078696D01*
X94807281Y-63069472D01*
X94790768Y-63058625D01*
X94788380Y-63056773D01*
X102229434Y-63056773D01*
X102230121Y-63063780D01*
X102230121Y-63063783D01*
X102238493Y-63149165D01*
X102247239Y-63238364D01*
X102304833Y-63411499D01*
X102319504Y-63435723D01*
X102382082Y-63539051D01*
X102399354Y-63567571D01*
X102526103Y-63698823D01*
X102531995Y-63702678D01*
X102531999Y-63702682D01*
X102648473Y-63778900D01*
X102678781Y-63798733D01*
X102685385Y-63801189D01*
X102685387Y-63801190D01*
X102745557Y-63823567D01*
X102849800Y-63862335D01*
X103030660Y-63886467D01*
X103037671Y-63885829D01*
X103037675Y-63885829D01*
X103177380Y-63873114D01*
X103212371Y-63869929D01*
X103219073Y-63867751D01*
X103219075Y-63867751D01*
X103379205Y-63815722D01*
X103379208Y-63815721D01*
X103385904Y-63813545D01*
X103413122Y-63797320D01*
X103536577Y-63723727D01*
X103536580Y-63723725D01*
X103542632Y-63720117D01*
X103640414Y-63627000D01*
X103669662Y-63599148D01*
X103669664Y-63599145D01*
X103674766Y-63594287D01*
X103775739Y-63442310D01*
X103798038Y-63383607D01*
X103838033Y-63278322D01*
X103838034Y-63278317D01*
X103840533Y-63271739D01*
X103844284Y-63245049D01*
X103865376Y-63094975D01*
X103865376Y-63094970D01*
X103865927Y-63091052D01*
X103866087Y-63079576D01*
X103866191Y-63072163D01*
X103866191Y-63072158D01*
X103866246Y-63068200D01*
X103845907Y-62886875D01*
X103827739Y-62834702D01*
X103803878Y-62766185D01*
X103785901Y-62714561D01*
X103689211Y-62559824D01*
X103619686Y-62489812D01*
X103565604Y-62435351D01*
X103565600Y-62435348D01*
X103560641Y-62430354D01*
X103549457Y-62423256D01*
X103454279Y-62362855D01*
X103406583Y-62332586D01*
X103274714Y-62285629D01*
X103241327Y-62273740D01*
X103241325Y-62273739D01*
X103234693Y-62271378D01*
X103227707Y-62270545D01*
X103227703Y-62270544D01*
X103098126Y-62255094D01*
X103053514Y-62249774D01*
X103046511Y-62250510D01*
X103046510Y-62250510D01*
X103000275Y-62255370D01*
X102872051Y-62268846D01*
X102865383Y-62271116D01*
X102705990Y-62325378D01*
X102705987Y-62325379D01*
X102699323Y-62327648D01*
X102652599Y-62356393D01*
X102573664Y-62404954D01*
X102543914Y-62423256D01*
X102538881Y-62428185D01*
X102424293Y-62540398D01*
X102413550Y-62550918D01*
X102314708Y-62704290D01*
X102312299Y-62710910D01*
X102312297Y-62710913D01*
X102254882Y-62868660D01*
X102252302Y-62875749D01*
X102229434Y-63056773D01*
X94788380Y-63056773D01*
X94781902Y-63051748D01*
X94781897Y-63051745D01*
X94775634Y-63046887D01*
X94736750Y-63030061D01*
X94726105Y-63024846D01*
X94688978Y-63004435D01*
X94670438Y-62999675D01*
X94651741Y-62993274D01*
X94634165Y-62985668D01*
X94592322Y-62979041D01*
X94580703Y-62976635D01*
X94539674Y-62966100D01*
X94520536Y-62966100D01*
X94500825Y-62964549D01*
X94481916Y-62961554D01*
X94468799Y-62962794D01*
X94439739Y-62965541D01*
X94427881Y-62966100D01*
X91719502Y-62966100D01*
X91651381Y-62946098D01*
X91630407Y-62929195D01*
X90527920Y-61826708D01*
X90520810Y-61818895D01*
X90516826Y-61812617D01*
X90469069Y-61767770D01*
X90466227Y-61765015D01*
X90447265Y-61746053D01*
X90444138Y-61743627D01*
X90443497Y-61743062D01*
X90435337Y-61736093D01*
X90410239Y-61712525D01*
X90404458Y-61707096D01*
X90387681Y-61697872D01*
X90371168Y-61687025D01*
X90362302Y-61680148D01*
X90362297Y-61680145D01*
X90356034Y-61675287D01*
X90317150Y-61658461D01*
X90306505Y-61653246D01*
X90269378Y-61632835D01*
X90250838Y-61628075D01*
X90232141Y-61621674D01*
X90214565Y-61614068D01*
X90172722Y-61607441D01*
X90161103Y-61605035D01*
X90120074Y-61594500D01*
X90100936Y-61594500D01*
X90081225Y-61592949D01*
X90062316Y-61589954D01*
X90049199Y-61591194D01*
X90020139Y-61593941D01*
X90008281Y-61594500D01*
X88772794Y-61594500D01*
X88704673Y-61574498D01*
X88658180Y-61520842D01*
X88647579Y-61482545D01*
X88632092Y-61344474D01*
X88631307Y-61337475D01*
X88571301Y-61165161D01*
X88474611Y-61010424D01*
X88379208Y-60914353D01*
X88351004Y-60885951D01*
X88351000Y-60885948D01*
X88346041Y-60880954D01*
X88317252Y-60862684D01*
X88270455Y-60809295D01*
X88259950Y-60739080D01*
X88289074Y-60674332D01*
X88348580Y-60635608D01*
X88384768Y-60630300D01*
X99002996Y-60630300D01*
X99071117Y-60650302D01*
G37*
%TD.AperFunction*%
%TA.AperFunction,Conductor*%
G36*
X85774611Y-69750102D02*
G01*
X85821104Y-69803758D01*
X85831208Y-69874032D01*
X85801714Y-69938612D01*
X85795585Y-69945195D01*
X83767785Y-71972995D01*
X83705473Y-72007021D01*
X83678690Y-72009900D01*
X78002098Y-72009900D01*
X77933977Y-71989898D01*
X77887484Y-71936242D01*
X77877766Y-71896758D01*
X77876800Y-71896863D01*
X77875360Y-71883607D01*
X77875360Y-71856393D01*
X77876431Y-71846535D01*
X77876432Y-71846525D01*
X77876800Y-71843134D01*
X77876800Y-71396866D01*
X77876432Y-71393475D01*
X77876431Y-71393465D01*
X77875360Y-71383607D01*
X77875360Y-71356393D01*
X77876431Y-71346535D01*
X77876432Y-71346525D01*
X77876800Y-71343134D01*
X77876800Y-70896866D01*
X77876432Y-70893475D01*
X77876431Y-70893465D01*
X77875360Y-70883607D01*
X77875360Y-70856393D01*
X77876431Y-70846535D01*
X77876432Y-70846525D01*
X77876800Y-70843134D01*
X77876800Y-70396866D01*
X77876432Y-70393475D01*
X77876431Y-70393465D01*
X77875360Y-70383607D01*
X77875360Y-70356393D01*
X77876431Y-70346535D01*
X77876432Y-70346525D01*
X77876800Y-70343134D01*
X77876800Y-69896866D01*
X77876432Y-69893475D01*
X77876431Y-69893465D01*
X77875360Y-69883607D01*
X77875360Y-69856393D01*
X77876800Y-69843137D01*
X77878389Y-69843310D01*
X77899953Y-69782327D01*
X77956053Y-69738815D01*
X78002098Y-69730100D01*
X85706490Y-69730100D01*
X85774611Y-69750102D01*
G37*
%TD.AperFunction*%
%TA.AperFunction,Conductor*%
G36*
X89806220Y-62834702D02*
G01*
X89827194Y-62851605D01*
X90825005Y-63849416D01*
X90859031Y-63911728D01*
X90854311Y-63981605D01*
X90822302Y-64069549D01*
X90809614Y-64169984D01*
X90781234Y-64235057D01*
X90773704Y-64243284D01*
X90706593Y-64310395D01*
X90644281Y-64344421D01*
X90617498Y-64347300D01*
X89505920Y-64347300D01*
X89437799Y-64327298D01*
X89391306Y-64273642D01*
X89381202Y-64203368D01*
X89400972Y-64151573D01*
X89434294Y-64101419D01*
X89500939Y-64001110D01*
X89544488Y-63886467D01*
X89563233Y-63837122D01*
X89563234Y-63837117D01*
X89565733Y-63830539D01*
X89566713Y-63823567D01*
X89590576Y-63653775D01*
X89590576Y-63653770D01*
X89591127Y-63649852D01*
X89591446Y-63627000D01*
X89571107Y-63445675D01*
X89567642Y-63435723D01*
X89513419Y-63280018D01*
X89511101Y-63273361D01*
X89428048Y-63140448D01*
X89418144Y-63124598D01*
X89414411Y-63118624D01*
X89325891Y-63029484D01*
X89292084Y-62967053D01*
X89297396Y-62896256D01*
X89340140Y-62839569D01*
X89406747Y-62814990D01*
X89415297Y-62814700D01*
X89738099Y-62814700D01*
X89806220Y-62834702D01*
G37*
%TD.AperFunction*%
%TA.AperFunction,Conductor*%
G36*
X79446856Y-62902502D02*
G01*
X79493349Y-62956158D01*
X79503453Y-63026432D01*
X79473959Y-63091012D01*
X79419340Y-63127778D01*
X79388792Y-63138177D01*
X79388787Y-63138179D01*
X79382123Y-63140448D01*
X79226714Y-63236056D01*
X79181822Y-63280018D01*
X79113897Y-63346535D01*
X79096350Y-63363718D01*
X79033383Y-63461423D01*
X79002842Y-63508814D01*
X78997508Y-63517090D01*
X78995099Y-63523710D01*
X78995097Y-63523713D01*
X78937510Y-63681932D01*
X78935102Y-63688549D01*
X78934220Y-63695533D01*
X78934218Y-63695540D01*
X78921360Y-63797320D01*
X78892978Y-63862397D01*
X78833919Y-63901798D01*
X78762932Y-63903015D01*
X78743110Y-63895725D01*
X78628573Y-63842316D01*
X78623265Y-63840894D01*
X78623263Y-63840893D01*
X78529323Y-63815722D01*
X78439598Y-63791680D01*
X78324580Y-63781617D01*
X78285804Y-63778225D01*
X78275882Y-63776958D01*
X78267804Y-63775599D01*
X78257252Y-63773824D01*
X78251013Y-63773748D01*
X78249560Y-63773730D01*
X78249557Y-63773730D01*
X78244700Y-63773671D01*
X78221748Y-63776958D01*
X78217076Y-63777627D01*
X78199214Y-63778900D01*
X78002800Y-63778900D01*
X77934679Y-63758898D01*
X77888186Y-63705242D01*
X77876800Y-63652900D01*
X77876800Y-63396866D01*
X77876432Y-63393475D01*
X77876431Y-63393465D01*
X77875360Y-63383607D01*
X77875360Y-63356393D01*
X77876431Y-63346535D01*
X77876432Y-63346525D01*
X77876800Y-63343134D01*
X77876800Y-63008500D01*
X77896802Y-62940379D01*
X77950458Y-62893886D01*
X78002800Y-62882500D01*
X79378735Y-62882500D01*
X79446856Y-62902502D01*
G37*
%TD.AperFunction*%
%TA.AperFunction,Conductor*%
G36*
X81518104Y-62301302D02*
G01*
X81564597Y-62354958D01*
X81574701Y-62425232D01*
X81545207Y-62489812D01*
X81538140Y-62497324D01*
X81514385Y-62520587D01*
X81509350Y-62525518D01*
X81410508Y-62678890D01*
X81408099Y-62685510D01*
X81408097Y-62685513D01*
X81351971Y-62839719D01*
X81348102Y-62850349D01*
X81325234Y-63031373D01*
X81325921Y-63038380D01*
X81325921Y-63038383D01*
X81341602Y-63198310D01*
X81343039Y-63212964D01*
X81345261Y-63219642D01*
X81345401Y-63220303D01*
X81340000Y-63291093D01*
X81297183Y-63347726D01*
X81230546Y-63372220D01*
X81222155Y-63372500D01*
X80424337Y-63372500D01*
X80356216Y-63352498D01*
X80334932Y-63335284D01*
X80248409Y-63248155D01*
X80248400Y-63248148D01*
X80243441Y-63243154D01*
X80235894Y-63238364D01*
X80142021Y-63178791D01*
X80089383Y-63145386D01*
X79982690Y-63107394D01*
X79924127Y-63086540D01*
X79924125Y-63086539D01*
X79917493Y-63084178D01*
X79910507Y-63083345D01*
X79910503Y-63083344D01*
X79878899Y-63079576D01*
X79813626Y-63051649D01*
X79773813Y-62992866D01*
X79772101Y-62921890D01*
X79809033Y-62861255D01*
X79854988Y-62834595D01*
X79899206Y-62820271D01*
X79899209Y-62820270D01*
X79906175Y-62818013D01*
X79912437Y-62814213D01*
X79917980Y-62811675D01*
X79923456Y-62808933D01*
X79930341Y-62806434D01*
X79991732Y-62766185D01*
X79995400Y-62763870D01*
X80058181Y-62725773D01*
X80062386Y-62722059D01*
X80062389Y-62722057D01*
X80066605Y-62718333D01*
X80066631Y-62718362D01*
X80069562Y-62715762D01*
X80072916Y-62712958D01*
X80079035Y-62708946D01*
X80132589Y-62652413D01*
X80134966Y-62649972D01*
X80466733Y-62318205D01*
X80529045Y-62284179D01*
X80555828Y-62281300D01*
X81449983Y-62281300D01*
X81518104Y-62301302D01*
G37*
%TD.AperFunction*%
%TD*%
%TA.AperFunction,Conductor*%
%TO.N,+5V*%
G36*
X76685421Y-61917002D02*
G01*
X76731914Y-61970658D01*
X76743300Y-62023000D01*
X76743300Y-63652900D01*
X76723298Y-63721021D01*
X76669642Y-63767514D01*
X76617300Y-63778900D01*
X76519300Y-63778900D01*
X76451179Y-63758898D01*
X76404686Y-63705242D01*
X76393300Y-63652900D01*
X76393300Y-62023000D01*
X76413302Y-61954879D01*
X76466958Y-61908386D01*
X76519300Y-61897000D01*
X76617300Y-61897000D01*
X76685421Y-61917002D01*
G37*
%TD.AperFunction*%
%TD*%
M02*
