%TF.GenerationSoftware,KiCad,Pcbnew,6.0.7-f9a2dced07~116~ubuntu22.04.1*%
%TF.CreationDate,2022-09-27T00:14:19+08:00*%
%TF.ProjectId,esp32_core_m2,65737033-325f-4636-9f72-655f6d322e6b,rev?*%
%TF.SameCoordinates,Original*%
%TF.FileFunction,Profile,NP*%
%FSLAX46Y46*%
G04 Gerber Fmt 4.6, Leading zero omitted, Abs format (unit mm)*
G04 Created by KiCad (PCBNEW 6.0.7-f9a2dced07~116~ubuntu22.04.1) date 2022-09-27 00:14:19*
%MOMM*%
%LPD*%
G01*
G04 APERTURE LIST*
%TA.AperFunction,Profile*%
%ADD10C,0.100000*%
%TD*%
G04 APERTURE END LIST*
D10*
%TO.C,J1*%
X105575100Y-69850000D02*
X105422700Y-70002400D01*
X105575100Y-72390000D02*
X105422700Y-72237600D01*
X79565500Y-81838800D02*
X79565500Y-81381600D01*
X79057500Y-61366400D02*
X75552300Y-61366400D01*
X78244700Y-65506600D02*
X75552300Y-65506600D01*
X78244700Y-64287400D02*
X75552300Y-64287400D01*
X79057500Y-80873600D02*
X75552300Y-80873600D01*
X79565500Y-60401200D02*
X79565500Y-60858400D01*
X105295700Y-82118200D02*
X79844900Y-82118200D01*
X105295700Y-60121800D02*
X79844900Y-60121800D01*
X105575100Y-69850000D02*
X105575100Y-60401200D01*
X75272900Y-80594200D02*
X75272900Y-65786000D01*
X105575100Y-81838800D02*
X105575100Y-72390000D01*
X105575100Y-60401200D02*
G75*
G03*
X105295700Y-60121800I-279400J0D01*
G01*
X75272900Y-80594200D02*
G75*
G03*
X75552300Y-80873600I279399J-1D01*
G01*
X79565500Y-81381600D02*
G75*
G03*
X79057500Y-80873600I-508001J-1D01*
G01*
X78244700Y-65506600D02*
G75*
G03*
X78244700Y-64287400I0J609600D01*
G01*
X75272900Y-64008000D02*
G75*
G03*
X75552300Y-64287400I279400J0D01*
G01*
X79565500Y-81838800D02*
G75*
G03*
X79844900Y-82118200I279399J-1D01*
G01*
X105422700Y-70002400D02*
G75*
G03*
X105422700Y-72237600I0J-1117600D01*
G01*
X75552300Y-61366400D02*
G75*
G03*
X75272900Y-61645800I0J-279400D01*
G01*
X79844900Y-60121800D02*
G75*
G03*
X79565500Y-60401200I0J-279400D01*
G01*
X79057500Y-61366400D02*
G75*
G03*
X79565500Y-60858400I0J508000D01*
G01*
X105295700Y-82118200D02*
G75*
G03*
X105575100Y-81838800I1J279399D01*
G01*
X75552300Y-65506600D02*
G75*
G03*
X75272900Y-65786000I0J-279400D01*
G01*
%TD*%
M02*
