M48
; DRILL file {KiCad 6.0.7-f9a2dced07~116~ubuntu22.04.1} date 2022年09月27日 星期二 00时14分16秒
; FORMAT={-:-/ absolute / inch / decimal}
; #@! TF.CreationDate,2022-09-27T00:14:16+08:00
; #@! TF.GenerationSoftware,Kicad,Pcbnew,6.0.7-f9a2dced07~116~ubuntu22.04.1
; #@! TF.FileFunction,Plated,1,4,PTH
FMAT,2
INCH
; #@! TA.AperFunction,Plated,PTH,ComponentDrill
T1C0.0079
; #@! TA.AperFunction,Plated,PTH,ViaDrill
T2C0.0120
%
G90
G05
T1
X3.5793Y-2.81
X3.6072Y-2.7822
X3.6072Y-2.8378
X3.635Y-2.7543
X3.635Y-2.81
X3.635Y-2.8657
X3.6628Y-2.7822
X3.6628Y-2.8378
X3.6907Y-2.81
T2
X3.094Y-2.479
X3.105Y-3.018
X3.105Y-3.057
X3.105Y-3.095
X3.139Y-2.515
X3.1418Y-3.018
X3.1418Y-3.057
X3.1418Y-3.095
X3.178Y-2.495
X3.1785Y-3.018
X3.1785Y-3.057
X3.1785Y-3.095
X3.2152Y-3.018
X3.2152Y-3.057
X3.2152Y-3.095
X3.218Y-2.57
X3.234Y-2.482
X3.252Y-3.018
X3.252Y-3.057
X3.252Y-3.095
X3.285Y-3.123
X3.285Y-3.162
X3.285Y-3.2
X3.3217Y-3.123
X3.3217Y-3.162
X3.3217Y-3.2
X3.337Y-2.57
X3.3585Y-3.123
X3.3585Y-3.162
X3.3585Y-3.2
X3.361Y-2.597
X3.361Y-2.758
X3.379Y-2.94
X3.3893Y-2.6119
X3.3952Y-3.123
X3.3952Y-3.162
X3.3952Y-3.2
X3.425Y-2.484
X3.432Y-3.123
X3.432Y-3.162
X3.432Y-3.2
X3.454Y-2.509
X3.458Y-2.422
X3.481Y-2.933
X3.495Y-2.505
X3.544Y-2.989
X3.549Y-2.502
X3.584Y-3.119
X3.584Y-3.158
X3.584Y-3.196
X3.607Y-2.53
X3.6208Y-3.119
X3.6208Y-3.158
X3.6208Y-3.196
X3.656Y-2.536
X3.6575Y-3.119
X3.6575Y-3.158
X3.6575Y-3.196
X3.681Y-3.078
X3.6942Y-3.119
X3.6942Y-3.158
X3.6942Y-3.196
X3.7294Y-2.9305
X3.731Y-3.119
X3.731Y-3.158
X3.731Y-3.196
X3.734Y-2.559
X3.751Y-2.587
X3.754Y-2.91
X3.761Y-2.622
X3.7894Y-2.885
X3.795Y-2.493
X3.801Y-2.819
X3.82Y-2.669
X3.821Y-2.89
X3.8459Y-2.7982
X3.846Y-2.762
X3.857Y-3.064
X3.8823Y-2.7747
X3.922Y-2.42
X3.942Y-3.082
X3.959Y-2.809
X3.9787Y-3.082
X3.98Y-2.552
X4.0155Y-3.082
X4.018Y-2.551
X4.042Y-2.415
X4.0522Y-3.082
X4.057Y-2.483
X4.089Y-3.082
T0
M30
